<svg width="25" height="20" viewBox="0 0 25 20" fill="none" xmlns="http://www.w3.org/2000/svg">
<path d="M22.1669 15.2195C23.3128 14.0551 24.0003 12.5941 24.0003 11C24.0003 7.5625 20.8128 4.72227 16.6586 4.21523C15.3461 1.74023 12.2628 0 8.66695 0C3.87945 0 0.000280631 3.07656 0.000280631 6.875C0.000280631 8.46484 0.687781 9.92578 1.83361 11.0945C1.19611 12.4137 0.279447 13.4363 0.262781 13.4535C0.000280639 13.7414 -0.0747194 14.1625 0.0794473 14.5277C0.229447 14.893 0.579447 15.1293 0.962781 15.1293C3.19195 15.1293 4.99195 14.2613 6.17945 13.4621C6.56278 13.5523 6.95861 13.6211 7.36278 13.6727C8.67111 16.1391 11.7419 17.875 15.3336 17.875C16.2003 17.875 17.0336 17.7719 17.8253 17.5828C19.0128 18.3777 20.8086 19.25 23.0419 19.25C23.4253 19.25 23.7711 19.0137 23.9253 18.6484C24.0753 18.2832 24.0044 17.8621 23.7419 17.5742C23.7253 17.5613 22.8044 16.5387 22.1669 15.2195ZM5.80028 11.2535L5.08778 11.7305C4.50028 12.1215 3.90028 12.4309 3.29195 12.65C3.40445 12.448 3.51695 12.2332 3.62528 12.0141L4.27111 10.6777L3.23778 9.625C2.67528 9.04922 2.00028 8.1082 2.00028 6.875C2.00028 4.2668 5.05445 2.0625 8.66695 2.0625C12.2794 2.0625 15.3336 4.2668 15.3336 6.875C15.3336 9.4832 12.2794 11.6875 8.66695 11.6875C7.97945 11.6875 7.29195 11.6059 6.62528 11.4469L5.80028 11.2535ZM20.7628 13.75L19.7336 14.7984L20.3794 16.1348C20.4878 16.3539 20.6003 16.5688 20.7128 16.7707C20.1044 16.5516 19.5044 16.2422 18.9169 15.8512L18.2044 15.3742L17.3753 15.5719C16.7086 15.7309 16.0211 15.8125 15.3336 15.8125C13.0836 15.8125 11.0753 14.9488 9.86278 13.677C14.0836 13.2129 17.3336 10.3512 17.3336 6.875C17.3336 6.72891 17.3169 6.58711 17.3044 6.44531C19.9878 7.06836 22.0003 8.88594 22.0003 11C22.0003 12.2332 21.3253 13.1742 20.7628 13.75Z" fill="white"/>
</svg>
