<svg width="325" height="29" viewBox="0 0 325 29" fill="none" xmlns="http://www.w3.org/2000/svg">
<path d="M7.62 4.82C8.98 5.1 10.03 5.66 10.77 6.5C11.51 7.34 11.88 8.34 11.88 9.5V9.92H8.46V9.5C8.46 9.26 8.39 9.03 8.25 8.81C8.13 8.57 7.92 8.37 7.62 8.21V10.91C10.7 11.33 12.24 12.8 12.24 15.32V15.5C12.24 16.84 11.83 17.93 11.01 18.77C10.21 19.61 9.08 20.12 7.62 20.3V22.16H4.74V20.21C3.92 20.07 3.22 19.84 2.64 19.52C2.06 19.18 1.58 18.78 1.2 18.32C0.84 17.86 0.57 17.35 0.39 16.79C0.21 16.21 0.12 15.62 0.12 15.02V14.42H3.54V14.84C3.54 15.3 3.63 15.7 3.81 16.04C3.99 16.38 4.3 16.65 4.74 16.85V13.61C3.36 13.37 2.27 12.92 1.47 12.26C0.69 11.6 0.3 10.64 0.3 9.38V9.2C0.3 8.52 0.42 7.93 0.66 7.43C0.9 6.91 1.22 6.47 1.62 6.11C2.02 5.73 2.49 5.43 3.03 5.21C3.57 4.99 4.14 4.83 4.74 4.73V2.84H7.62V4.82ZM8.82 15.56C8.82 15.26 8.75 14.99 8.61 14.75C8.47 14.49 8.14 14.28 7.62 14.12V16.97C8.08 16.83 8.39 16.63 8.55 16.37C8.73 16.11 8.82 15.84 8.82 15.56ZM3.72 9.2C3.72 9.48 3.78 9.72 3.9 9.92C4.02 10.1 4.3 10.27 4.74 10.43V8.06C4.38 8.18 4.12 8.35 3.96 8.57C3.8 8.77 3.72 8.98 3.72 9.2ZM319.895 4.82C321.255 5.1 322.305 5.66 323.045 6.5C323.785 7.34 324.155 8.34 324.155 9.5V9.92H320.735V9.5C320.735 9.26 320.665 9.03 320.525 8.81C320.405 8.57 320.195 8.37 319.895 8.21V10.91C322.975 11.33 324.515 12.8 324.515 15.32V15.5C324.515 16.84 324.105 17.93 323.285 18.77C322.485 19.61 321.355 20.12 319.895 20.3V22.16H317.015V20.21C316.195 20.07 315.495 19.84 314.915 19.52C314.335 19.18 313.855 18.78 313.475 18.32C313.115 17.86 312.845 17.35 312.665 16.79C312.485 16.21 312.395 15.62 312.395 15.02V14.42H315.815V14.84C315.815 15.3 315.905 15.7 316.085 16.04C316.265 16.38 316.575 16.65 317.015 16.85V13.61C315.635 13.37 314.545 12.92 313.745 12.26C312.965 11.6 312.575 10.64 312.575 9.38V9.2C312.575 8.52 312.695 7.93 312.935 7.43C313.175 6.91 313.495 6.47 313.895 6.11C314.295 5.73 314.765 5.43 315.305 5.21C315.845 4.99 316.415 4.83 317.015 4.73V2.84H319.895V4.82ZM321.095 15.56C321.095 15.26 321.025 14.99 320.885 14.75C320.745 14.49 320.415 14.28 319.895 14.12V16.97C320.355 16.83 320.665 16.63 320.825 16.37C321.005 16.11 321.095 15.84 321.095 15.56ZM315.995 9.2C315.995 9.48 316.055 9.72 316.175 9.92C316.295 10.1 316.575 10.27 317.015 10.43V8.06C316.655 8.18 316.395 8.35 316.235 8.57C316.075 8.77 315.995 8.98 315.995 9.2Z" fill="#9FD96B"/>
<path d="M17.5291 2H31.5691V5.78H26.5291V19.22H31.5691V23H17.5291V19.22H22.5691V5.78H17.5291V2ZM39.8583 23H36.0783V8.12H39.8583V10.34H40.3983C40.7383 9.5 41.2883 8.85 42.0483 8.39C42.8083 7.93 43.6983 7.7 44.7183 7.7C45.4383 7.7 46.1083 7.82 46.7283 8.06C47.3683 8.28 47.9283 8.63 48.4083 9.11C48.8883 9.59 49.2583 10.2 49.5183 10.94C49.7983 11.68 49.9383 12.56 49.9383 13.58V23H46.1583V14.54C46.1583 13.48 45.8983 12.65 45.3783 12.05C44.8783 11.43 44.1483 11.12 43.1883 11.12C42.0683 11.12 41.2283 11.5 40.6683 12.26C40.1283 13 39.8583 14 39.8583 15.26V23ZM53.3974 8.12H57.4774L60.9874 21.2H61.5274L65.0374 8.12H69.1174L64.8574 23H57.6574L53.3974 8.12ZM76.1466 16.79C76.1666 17.23 76.2666 17.64 76.4466 18.02C76.6466 18.38 76.9066 18.7 77.2266 18.98C77.5666 19.24 77.9466 19.45 78.3666 19.61C78.8066 19.75 79.2666 19.82 79.7466 19.82C80.6866 19.82 81.4066 19.66 81.9066 19.34C82.4066 19 82.7666 18.6 82.9866 18.14L86.2266 19.94C86.0466 20.32 85.7966 20.72 85.4766 21.14C85.1566 21.54 84.7366 21.91 84.2166 22.25C83.7166 22.59 83.0966 22.87 82.3566 23.09C81.6366 23.31 80.7866 23.42 79.8066 23.42C78.6866 23.42 77.6666 23.24 76.7466 22.88C75.8266 22.52 75.0266 22 74.3466 21.32C73.6866 20.64 73.1666 19.81 72.7866 18.83C72.4266 17.85 72.2466 16.74 72.2466 15.5V15.32C72.2466 14.18 72.4366 13.14 72.8166 12.2C73.2166 11.26 73.7566 10.46 74.4366 9.8C75.1166 9.14 75.9066 8.63 76.8066 8.27C77.7266 7.89 78.7066 7.7 79.7466 7.7C81.0266 7.7 82.1266 7.93 83.0466 8.39C83.9666 8.83 84.7266 9.4 85.3266 10.1C85.9266 10.78 86.3666 11.54 86.6466 12.38C86.9266 13.2 87.0666 14 87.0666 14.78V16.79H76.1466ZM79.7166 11.12C78.7566 11.12 77.9766 11.37 77.3766 11.87C76.7766 12.35 76.3866 12.91 76.2066 13.55H83.2266C83.1066 12.85 82.7266 12.27 82.0866 11.81C81.4666 11.35 80.6766 11.12 79.7166 11.12ZM95.9257 12.32C95.9257 12.8 96.1757 13.15 96.6757 13.37C97.1757 13.57 98.0857 13.74 99.4057 13.88C100.926 14.04 102.166 14.5 103.126 15.26C104.086 16 104.566 17.04 104.566 18.38V18.56C104.566 20.04 104.026 21.22 102.946 22.1C101.866 22.98 100.346 23.42 98.3857 23.42C97.2257 23.42 96.2357 23.27 95.4157 22.97C94.5957 22.67 93.9157 22.3 93.3757 21.86C92.8357 21.4 92.4157 20.9 92.1157 20.36C91.8357 19.8 91.6457 19.26 91.5457 18.74L95.0257 17.6C95.1857 18.24 95.5157 18.8 96.0157 19.28C96.5357 19.76 97.3257 20 98.3857 20C99.3257 20 99.9657 19.86 100.306 19.58C100.666 19.28 100.846 18.96 100.846 18.62C100.846 18.42 100.796 18.24 100.696 18.08C100.616 17.9 100.456 17.74 100.216 17.6C99.9757 17.44 99.6457 17.31 99.2257 17.21C98.8257 17.11 98.3157 17.03 97.6957 16.97C96.0157 16.83 94.6757 16.4 93.6757 15.68C92.6957 14.94 92.2057 13.86 92.2057 12.44V12.26C92.2057 11.52 92.3657 10.87 92.6857 10.31C93.0057 9.75 93.4257 9.28 93.9457 8.9C94.4657 8.5 95.0657 8.2 95.7457 8C96.4257 7.8 97.1257 7.7 97.8457 7.7C98.7857 7.7 99.5957 7.82 100.276 8.06C100.976 8.28 101.566 8.58 102.046 8.96C102.526 9.32 102.916 9.73 103.216 10.19C103.516 10.63 103.746 11.06 103.906 11.48L100.486 12.86C100.306 12.32 99.9957 11.9 99.5557 11.6C99.1157 11.28 98.5457 11.12 97.8457 11.12C97.2057 11.12 96.7257 11.24 96.4057 11.48C96.0857 11.7 95.9257 11.98 95.9257 12.32ZM109.135 8.12H113.545V2H117.325V8.12H122.695V11.72H117.325V18.5C117.325 19.1 117.595 19.4 118.135 19.4H122.155V23H115.855C115.175 23 114.615 22.78 114.175 22.34C113.755 21.9 113.545 21.34 113.545 20.66V11.72H109.135V8.12ZM128.194 19.4H133.234V11.72H128.554V8.12H137.014V19.4H141.334V23H128.194V19.4ZM137.944 3.71C137.944 4.11 137.864 4.49 137.704 4.85C137.564 5.19 137.364 5.49 137.104 5.75C136.844 5.99 136.534 6.19 136.174 6.35C135.834 6.49 135.474 6.56 135.094 6.56C134.694 6.56 134.324 6.49 133.984 6.35C133.644 6.19 133.344 5.99 133.084 5.75C132.824 5.49 132.614 5.19 132.454 4.85C132.314 4.49 132.244 4.11 132.244 3.71C132.244 3.31 132.314 2.94 132.454 2.6C132.614 2.24 132.824 1.94 133.084 1.7C133.344 1.44 133.644 1.24 133.984 1.1C134.324 0.939999 134.694 0.859999 135.094 0.859999C135.474 0.859999 135.834 0.939999 136.174 1.1C136.534 1.24 136.844 1.44 137.104 1.7C137.364 1.94 137.564 2.24 137.704 2.6C137.864 2.94 137.944 3.31 137.944 3.71ZM150.073 23H146.293V8.12H150.073V10.34H150.613C150.953 9.5 151.503 8.85 152.263 8.39C153.023 7.93 153.913 7.7 154.933 7.7C155.653 7.7 156.323 7.82 156.943 8.06C157.583 8.28 158.143 8.63 158.623 9.11C159.103 9.59 159.473 10.2 159.733 10.94C160.013 11.68 160.153 12.56 160.153 13.58V23H156.373V14.54C156.373 13.48 156.113 12.65 155.593 12.05C155.093 11.43 154.363 11.12 153.403 11.12C152.283 11.12 151.443 11.5 150.883 12.26C150.343 13 150.073 14 150.073 15.26V23ZM175.282 20.84H174.742C174.582 21.18 174.382 21.51 174.142 21.83C173.922 22.13 173.622 22.4 173.242 22.64C172.882 22.88 172.442 23.07 171.922 23.21C171.422 23.35 170.812 23.42 170.092 23.42C169.172 23.42 168.312 23.26 167.512 22.94C166.732 22.6 166.042 22.11 165.442 21.47C164.862 20.81 164.402 20.01 164.062 19.07C163.742 18.13 163.582 17.05 163.582 15.83V15.29C163.582 14.09 163.752 13.02 164.092 12.08C164.452 11.14 164.932 10.35 165.532 9.71C166.152 9.05 166.862 8.55 167.662 8.21C168.482 7.87 169.342 7.7 170.242 7.7C171.442 7.7 172.392 7.93 173.092 8.39C173.792 8.83 174.342 9.46 174.742 10.28H175.282V8.12H179.062V26.66C179.062 27.34 178.842 27.9 178.402 28.34C177.982 28.78 177.432 29 176.752 29H166.732V25.4H174.472C175.012 25.4 175.282 25.1 175.282 24.5V20.84ZM171.322 19.82C172.502 19.82 173.452 19.45 174.172 18.71C174.912 17.95 175.282 16.96 175.282 15.74V15.38C175.282 14.16 174.912 13.18 174.172 12.44C173.452 11.68 172.502 11.3 171.322 11.3C170.142 11.3 169.182 11.67 168.442 12.41C167.722 13.13 167.362 14.12 167.362 15.38V15.74C167.362 17 167.722 18 168.442 18.74C169.182 19.46 170.142 19.82 171.322 19.82ZM182.071 2H189.691C192.291 2 194.221 2.61 195.481 3.83C196.741 5.03 197.371 6.9 197.371 9.44V15.56C197.371 18.1 196.741 19.98 195.481 21.2C194.221 22.4 192.291 23 189.691 23H182.071V19.19H184.051V5.78H182.071V2ZM189.691 19.22C191.071 19.22 192.031 18.9 192.571 18.26C193.131 17.6 193.411 16.58 193.411 15.2V9.44C193.411 8.24 193.131 7.33 192.571 6.71C192.031 6.09 191.071 5.78 189.691 5.78H188.011V19.22H189.691ZM211.481 8.12H215.261V23H211.481V20.84H210.941C210.281 22.56 208.861 23.42 206.681 23.42C205.941 23.42 205.251 23.3 204.611 23.06C203.971 22.82 203.411 22.45 202.931 21.95C202.451 21.45 202.071 20.83 201.791 20.09C201.531 19.33 201.401 18.44 201.401 17.42V8.12H205.181V16.64C205.181 17.7 205.431 18.53 205.931 19.13C206.431 19.71 207.181 20 208.181 20C209.321 20 210.151 19.64 210.671 18.92C211.211 18.18 211.481 17.18 211.481 15.92V8.12ZM234.71 23H230.93V12.56C230.93 12.14 230.82 11.83 230.6 11.63C230.4 11.41 230.13 11.3 229.79 11.3C229.39 11.3 229.07 11.42 228.83 11.66C228.61 11.9 228.5 12.26 228.5 12.74V23H224.72V12.56C224.72 12.14 224.6 11.83 224.36 11.63C224.14 11.41 223.87 11.3 223.55 11.3C223.19 11.3 222.89 11.42 222.65 11.66C222.41 11.9 222.29 12.26 222.29 12.74V23H218.51V8.12H222.29V9.56H222.83C222.95 9.02 223.22 8.58 223.64 8.24C224.08 7.88 224.65 7.7 225.35 7.7C226.01 7.7 226.57 7.88 227.03 8.24C227.49 8.58 227.8 9.02 227.96 9.56H228.5C228.66 9.02 228.99 8.58 229.49 8.24C230.01 7.88 230.65 7.7 231.41 7.7C232.41 7.7 233.21 8.04 233.81 8.72C234.41 9.38 234.71 10.3 234.71 11.48V23ZM237.179 2H244.799C247.399 2 249.329 2.61 250.589 3.83C251.849 5.03 252.479 6.9 252.479 9.44V15.56C252.479 18.1 251.849 19.98 250.589 21.2C249.329 22.4 247.399 23 244.799 23H237.179V19.19H239.159V5.78H237.179V2ZM244.799 19.22C246.179 19.22 247.139 18.9 247.679 18.26C248.239 17.6 248.519 16.58 248.519 15.2V9.44C248.519 8.24 248.239 7.33 247.679 6.71C247.139 6.09 246.179 5.78 244.799 5.78H243.119V19.22H244.799ZM266.588 8.12H270.368V23H266.588V20.84H266.048C265.388 22.56 263.968 23.42 261.788 23.42C261.048 23.42 260.358 23.3 259.718 23.06C259.078 22.82 258.518 22.45 258.038 21.95C257.558 21.45 257.178 20.83 256.898 20.09C256.638 19.33 256.508 18.44 256.508 17.42V8.12H260.288V16.64C260.288 17.7 260.538 18.53 261.038 19.13C261.538 19.71 262.288 20 263.288 20C264.428 20 265.258 19.64 265.778 18.92C266.318 18.18 266.588 17.18 266.588 15.92V8.12ZM289.817 23H286.037V12.56C286.037 12.14 285.927 11.83 285.707 11.63C285.507 11.41 285.237 11.3 284.897 11.3C284.497 11.3 284.177 11.42 283.937 11.66C283.717 11.9 283.607 12.26 283.607 12.74V23H279.827V12.56C279.827 12.14 279.707 11.83 279.467 11.63C279.247 11.41 278.977 11.3 278.657 11.3C278.297 11.3 277.997 11.42 277.757 11.66C277.517 11.9 277.397 12.26 277.397 12.74V23H273.617V8.12H277.397V9.56H277.937C278.057 9.02 278.327 8.58 278.747 8.24C279.187 7.88 279.757 7.7 280.457 7.7C281.117 7.7 281.677 7.88 282.137 8.24C282.597 8.58 282.907 9.02 283.067 9.56H283.607C283.767 9.02 284.097 8.58 284.597 8.24C285.117 7.88 285.757 7.7 286.517 7.7C287.517 7.7 288.317 8.04 288.917 8.72C289.517 9.38 289.817 10.3 289.817 11.48V23ZM297.986 12.32C297.986 12.8 298.236 13.15 298.736 13.37C299.236 13.57 300.146 13.74 301.466 13.88C302.986 14.04 304.226 14.5 305.186 15.26C306.146 16 306.626 17.04 306.626 18.38V18.56C306.626 20.04 306.086 21.22 305.006 22.1C303.926 22.98 302.406 23.42 300.446 23.42C299.286 23.42 298.296 23.27 297.476 22.97C296.656 22.67 295.976 22.3 295.436 21.86C294.896 21.4 294.476 20.9 294.176 20.36C293.896 19.8 293.706 19.26 293.606 18.74L297.086 17.6C297.246 18.24 297.576 18.8 298.076 19.28C298.596 19.76 299.386 20 300.446 20C301.386 20 302.026 19.86 302.366 19.58C302.726 19.28 302.906 18.96 302.906 18.62C302.906 18.42 302.856 18.24 302.756 18.08C302.676 17.9 302.516 17.74 302.276 17.6C302.036 17.44 301.706 17.31 301.286 17.21C300.886 17.11 300.376 17.03 299.756 16.97C298.076 16.83 296.736 16.4 295.736 15.68C294.756 14.94 294.266 13.86 294.266 12.44V12.26C294.266 11.52 294.426 10.87 294.746 10.31C295.066 9.75 295.486 9.28 296.006 8.9C296.526 8.5 297.126 8.2 297.806 8C298.486 7.8 299.186 7.7 299.906 7.7C300.846 7.7 301.656 7.82 302.336 8.06C303.036 8.28 303.626 8.58 304.106 8.96C304.586 9.32 304.976 9.73 305.276 10.19C305.576 10.63 305.806 11.06 305.966 11.48L302.546 12.86C302.366 12.32 302.056 11.9 301.616 11.6C301.176 11.28 300.606 11.12 299.906 11.12C299.266 11.12 298.786 11.24 298.466 11.48C298.146 11.7 297.986 11.98 297.986 12.32Z" fill="white"/>
</svg>
