<svg width="1440" height="1989" viewBox="0 0 1440 1989" fill="none" xmlns="http://www.w3.org/2000/svg">
<g opacity="0.4">
<path d="M355.127 772.121C355.383 772.462 355.572 772.813 355.693 773.174C355.831 773.535 355.901 773.89 355.903 774.238C355.905 774.586 355.847 774.918 355.729 775.236C355.619 775.545 355.449 775.822 355.219 776.066L354.997 776.302L354.001 775.364L354.149 775.207C354.421 774.918 354.555 774.583 354.552 774.201C354.558 773.828 354.445 773.458 354.213 773.091L352.448 774.964C353.091 775.735 353.452 776.454 353.531 777.122C353.627 777.79 353.42 778.395 352.91 778.936L352.836 779.015C352.285 779.6 351.635 779.878 350.887 779.849C350.156 779.82 349.434 779.511 348.72 778.921L347.967 779.72L347.024 778.831L347.802 778.006C347.475 777.583 347.242 777.165 347.102 776.753C346.98 776.341 346.926 775.944 346.94 775.561C346.971 775.178 347.058 774.823 347.201 774.496C347.352 774.161 347.547 773.866 347.786 773.613L348.082 773.299L349.078 774.237L348.93 774.394C348.535 774.813 348.323 775.248 348.294 775.699C348.265 776.15 348.401 776.6 348.703 777.049L350.715 774.914C350.142 774.209 349.817 773.548 349.739 772.931C349.678 772.313 349.895 771.742 350.389 771.218L350.463 771.14C350.726 770.86 351.009 770.665 351.311 770.554C351.63 770.443 351.952 770.399 352.275 770.424C352.607 770.439 352.936 770.519 353.263 770.662C353.598 770.796 353.913 770.978 354.208 771.206L354.974 770.394L355.917 771.283L355.127 772.121ZM351.814 778.052C352.102 777.746 352.22 777.429 352.168 777.099C352.116 776.77 351.913 776.372 351.56 775.908L349.609 777.977C350.026 778.288 350.425 778.45 350.808 778.464C351.199 778.486 351.535 778.349 351.814 778.052ZM351.485 772.102C351.254 772.347 351.135 772.614 351.126 772.903C351.135 773.191 351.294 773.547 351.604 773.971L353.32 772.15C352.999 771.93 352.673 771.804 352.341 771.771C352.009 771.739 351.723 771.849 351.485 772.102Z" fill="#7BF75C"/>
<path d="M346.353 635.061C346.745 635.227 347.084 635.436 347.37 635.688C347.671 635.931 347.909 636.202 348.086 636.502C348.262 636.802 348.379 637.119 348.436 637.453C348.496 637.775 348.488 638.1 348.411 638.427L348.337 638.743L347.005 638.431L347.055 638.22C347.145 637.835 347.093 637.478 346.899 637.149C346.716 636.823 346.433 636.559 346.049 636.358L345.462 638.864C346.404 639.208 347.077 639.649 347.481 640.188C347.9 640.717 348.024 641.344 347.854 642.068L347.83 642.173C347.646 642.956 347.224 643.523 346.563 643.873C345.916 644.215 345.136 644.309 344.222 644.157L343.972 645.226L342.71 644.931L342.969 643.826C342.474 643.624 342.063 643.38 341.735 643.094C341.422 642.799 341.176 642.482 340.996 642.144C340.831 641.798 340.728 641.447 340.688 641.092C340.651 640.726 340.671 640.374 340.751 640.035L340.849 639.614L342.181 639.926L342.132 640.136C342.001 640.697 342.036 641.18 342.237 641.584C342.438 641.989 342.782 642.31 343.268 642.547L343.937 639.69C343.088 639.368 342.475 638.96 342.098 638.465C341.736 637.961 341.636 637.358 341.801 636.657L341.825 636.552C341.913 636.178 342.06 635.867 342.265 635.62C342.486 635.363 342.742 635.165 343.034 635.023C343.328 634.87 343.653 634.774 344.007 634.734C344.365 634.682 344.728 634.681 345.099 634.731L345.353 633.644L346.615 633.939L346.353 635.061ZM346.463 641.853C346.558 641.444 346.501 641.11 346.291 640.852C346.08 640.593 345.705 640.351 345.166 640.126L344.518 642.895C345.034 642.954 345.461 642.894 345.799 642.714C346.148 642.538 346.37 642.25 346.463 641.853ZM343.192 636.872C343.116 637.199 343.146 637.49 343.284 637.744C343.436 637.989 343.752 638.217 344.233 638.428L344.803 635.992C344.416 635.963 344.07 636.018 343.767 636.156C343.463 636.295 343.272 636.533 343.192 636.872Z" fill="#7BF75C"/>
<path d="M262.143 914.516C262.5 914.75 262.796 915.017 263.032 915.316C263.284 915.609 263.469 915.919 263.589 916.246C263.708 916.573 263.766 916.906 263.762 917.245C263.763 917.572 263.697 917.89 263.562 918.198L263.433 918.495L262.179 917.948L262.265 917.75C262.423 917.387 262.437 917.027 262.305 916.668C262.184 916.315 261.953 916.004 261.611 915.737L260.582 918.097C261.447 918.605 262.03 919.16 262.331 919.762C262.647 920.358 262.656 920.997 262.359 921.679L262.316 921.778C261.994 922.515 261.477 922.997 260.763 923.222C260.065 923.442 259.281 923.394 258.41 923.08L257.971 924.086L256.783 923.569L257.236 922.529C256.786 922.241 256.426 921.927 256.155 921.586C255.9 921.24 255.715 920.884 255.599 920.519C255.499 920.148 255.461 919.785 255.485 919.429C255.514 919.062 255.599 918.719 255.738 918.4L255.91 918.004L257.164 918.551L257.078 918.749C256.848 919.277 256.795 919.758 256.92 920.192C257.045 920.626 257.325 921.004 257.762 921.325L258.934 918.635C258.157 918.165 257.628 917.653 257.346 917.098C257.08 916.537 257.091 915.927 257.379 915.267L257.422 915.168C257.575 914.816 257.775 914.536 258.023 914.33C258.285 914.117 258.573 913.968 258.886 913.882C259.203 913.784 259.54 913.748 259.896 913.772C260.256 913.785 260.614 913.85 260.97 913.965L261.416 912.942L262.604 913.46L262.143 914.516ZM261.029 921.217C261.196 920.832 261.2 920.493 261.04 920.201C260.879 919.908 260.554 919.603 260.065 919.285L258.928 921.892C259.425 922.043 259.856 922.061 260.221 921.945C260.596 921.834 260.866 921.591 261.029 921.217ZM258.709 915.729C258.574 916.037 258.552 916.328 258.642 916.603C258.747 916.871 259.017 917.153 259.452 917.447L260.452 915.153C260.076 915.055 259.726 915.047 259.403 915.128C259.079 915.21 258.848 915.41 258.709 915.729Z" fill="#7BF75C"/>
<path d="M668.56 833.191C668.841 832.871 669.147 832.615 669.476 832.423C669.801 832.215 670.134 832.075 670.475 832.002C670.815 831.93 671.153 831.919 671.488 831.971C671.812 832.015 672.118 832.126 672.404 832.302L672.68 832.472L671.963 833.637L671.779 833.524C671.442 833.316 671.086 833.252 670.713 833.333C670.346 833.403 670.006 833.588 669.694 833.889L671.886 835.238C672.51 834.453 673.142 833.954 673.78 833.741C674.415 833.511 675.049 833.591 675.682 833.981L675.774 834.038C676.459 834.459 676.863 835.039 676.986 835.777C677.106 836.499 676.949 837.269 676.516 838.087L677.451 838.663L676.772 839.766L675.806 839.172C675.458 839.578 675.096 839.891 674.721 840.111C674.342 840.314 673.964 840.448 673.587 840.512C673.205 840.559 672.84 840.545 672.491 840.472C672.132 840.391 671.804 840.26 671.508 840.078L671.14 839.851L671.857 838.686L672.041 838.799C672.531 839.101 673 839.221 673.448 839.158C673.895 839.095 674.308 838.87 674.687 838.483L672.188 836.946C671.614 837.649 671.033 838.102 670.444 838.303C669.851 838.488 669.248 838.391 668.635 838.014L668.543 837.957C668.216 837.756 667.968 837.519 667.798 837.245C667.624 836.955 667.516 836.649 667.475 836.328C667.423 836 667.434 835.662 667.508 835.312C667.572 834.957 667.686 834.612 667.85 834.276L666.899 833.691L667.579 832.587L668.56 833.191ZM675.038 835.234C674.681 835.013 674.346 834.962 674.034 835.08C673.722 835.198 673.374 835.477 672.99 835.917L675.412 837.408C675.631 836.937 675.709 836.513 675.646 836.136C675.588 835.748 675.386 835.447 675.038 835.234ZM669.279 836.762C669.565 836.938 669.851 837.001 670.135 836.95C670.416 836.884 670.732 836.656 671.084 836.266L668.954 834.955C668.803 835.314 668.746 835.659 668.781 835.991C668.817 836.322 668.983 836.579 669.279 836.762Z" fill="#7BF75C"/>
<path d="M305.188 509.687C305.609 509.754 305.989 509.875 306.327 510.051C306.677 510.214 306.974 510.421 307.217 510.669C307.46 510.918 307.65 511.198 307.786 511.508C307.922 511.806 307.992 512.124 307.996 512.46L308 512.784L306.632 512.801L306.63 512.585C306.625 512.189 306.488 511.855 306.221 511.582C305.965 511.31 305.627 511.122 305.205 511.019L305.239 513.593C306.236 513.7 306.995 513.967 307.517 514.392C308.05 514.805 308.322 515.384 308.331 516.128L308.333 516.236C308.343 517.039 308.07 517.691 307.512 518.19C306.966 518.677 306.232 518.957 305.309 519.029L305.323 520.127L304.027 520.143L304.012 519.009C303.483 518.932 303.025 518.794 302.639 518.595C302.264 518.384 301.949 518.136 301.693 517.851C301.449 517.554 301.265 517.239 301.141 516.904C301.016 516.558 300.952 516.211 300.947 515.863L300.942 515.431L302.31 515.413L302.313 515.629C302.32 516.205 302.47 516.665 302.762 517.009C303.055 517.354 303.466 517.582 303.995 517.696L303.957 514.762C303.056 514.653 302.363 514.404 301.878 514.015C301.404 513.613 301.163 513.052 301.154 512.332L301.153 512.224C301.148 511.84 301.215 511.503 301.356 511.213C301.508 510.911 301.708 510.656 301.958 510.449C302.207 510.23 302.499 510.058 302.833 509.934C303.167 509.798 303.52 509.709 303.892 509.668L303.877 508.552L305.173 508.536L305.188 509.687ZM306.929 516.254C306.924 515.834 306.788 515.523 306.521 515.323C306.254 515.122 305.832 514.978 305.255 514.889L305.292 517.733C305.807 517.666 306.207 517.505 306.492 517.249C306.788 516.993 306.934 516.662 306.929 516.254ZM302.556 512.206C302.561 512.542 302.66 512.816 302.855 513.03C303.062 513.231 303.424 513.377 303.941 513.466L303.909 510.964C303.525 511.029 303.203 511.165 302.942 511.373C302.68 511.58 302.552 511.858 302.556 512.206Z" fill="#7BF75C"/>
<path d="M559.479 616.514C559.162 616.797 558.828 617.015 558.478 617.166C558.13 617.334 557.782 617.433 557.436 617.464C557.089 617.495 556.752 617.465 556.426 617.374C556.109 617.291 555.819 617.144 555.556 616.935L555.303 616.734L556.154 615.663L556.323 615.797C556.633 616.044 556.978 616.15 557.359 616.115C557.731 616.089 558.091 615.946 558.437 615.684L556.422 614.082C555.708 614.787 555.022 615.207 554.363 615.342C553.705 615.494 553.085 615.338 552.503 614.875L552.419 614.808C551.789 614.307 551.458 613.683 551.424 612.936C551.392 612.205 551.64 611.459 552.168 610.699L551.308 610.015L552.115 609.001L553.003 609.707C553.397 609.346 553.794 609.078 554.192 608.905C554.593 608.748 554.984 608.661 555.367 608.643C555.751 608.642 556.112 608.699 556.449 608.814C556.796 608.937 557.106 609.106 557.379 609.323L557.717 609.592L556.865 610.663L556.696 610.528C556.245 610.17 555.794 609.995 555.342 610.004C554.891 610.012 554.454 610.186 554.031 610.525L556.327 612.351C556.982 611.721 557.613 611.342 558.222 611.213C558.832 611.1 559.419 611.268 559.983 611.716L560.067 611.784C560.368 612.023 560.586 612.288 560.722 612.58C560.86 612.889 560.93 613.205 560.933 613.53C560.945 613.861 560.893 614.196 560.778 614.534C560.672 614.879 560.518 615.208 560.314 615.522L561.188 616.216L560.381 617.231L559.479 616.514ZM553.292 613.709C553.621 613.97 553.948 614.061 554.272 613.982C554.595 613.902 554.974 613.667 555.408 613.276L553.182 611.505C552.908 611.946 552.78 612.358 552.798 612.74C552.808 613.132 552.973 613.455 553.292 613.709ZM559.193 612.882C558.931 612.673 558.655 612.577 558.366 612.592C558.08 612.625 557.738 612.813 557.342 613.158L559.3 614.715C559.492 614.377 559.59 614.041 559.595 613.708C559.6 613.374 559.466 613.099 559.193 612.882Z" fill="#7BF75C"/>
<path d="M829.065 430.566C829.322 430.907 829.51 431.258 829.631 431.619C829.769 431.98 829.839 432.335 829.841 432.683C829.843 433.031 829.785 433.363 829.667 433.681C829.558 433.99 829.388 434.267 829.157 434.511L828.935 434.747L827.939 433.809L828.087 433.652C828.359 433.363 828.493 433.028 828.49 432.646C828.496 432.273 828.383 431.902 828.152 431.536L826.387 433.409C827.029 434.18 827.39 434.899 827.469 435.567C827.566 436.235 827.359 436.84 826.849 437.381L826.774 437.46C826.223 438.045 825.573 438.323 824.826 438.294C824.095 438.265 823.372 437.956 822.659 437.366L821.906 438.165L820.963 437.276L821.74 436.451C821.414 436.027 821.18 435.61 821.041 435.198C820.918 434.786 820.864 434.388 820.878 434.006C820.909 433.623 820.996 433.268 821.139 432.941C821.291 432.606 821.485 432.311 821.724 432.058L822.02 431.744L823.016 432.682L822.868 432.839C822.473 433.258 822.261 433.693 822.232 434.144C822.203 434.595 822.339 435.045 822.641 435.494L824.653 433.359C824.081 432.654 823.755 431.993 823.678 431.376C823.617 430.758 823.833 430.187 824.327 429.663L824.401 429.585C824.664 429.305 824.947 429.11 825.249 428.999C825.569 428.888 825.89 428.844 826.213 428.869C826.545 428.884 826.874 428.963 827.201 429.107C827.536 429.241 827.851 429.423 828.147 429.651L828.912 428.839L829.855 429.728L829.065 430.566ZM825.753 436.497C826.041 436.191 826.159 435.874 826.106 435.544C826.054 435.215 825.851 434.817 825.498 434.352L823.548 436.422C823.964 436.733 824.364 436.895 824.746 436.909C825.137 436.931 825.473 436.794 825.753 436.497ZM825.423 430.547C825.192 430.792 825.073 431.059 825.065 431.348C825.073 431.636 825.232 431.992 825.542 432.416L827.258 430.595C826.937 430.375 826.611 430.249 826.279 430.216C825.947 430.184 825.662 430.294 825.423 430.547Z" fill="#7BF75C"/>
<path d="M820.291 293.506C820.683 293.672 821.023 293.881 821.309 294.133C821.609 294.376 821.848 294.647 822.024 294.947C822.2 295.247 822.317 295.564 822.374 295.898C822.434 296.22 822.426 296.545 822.35 296.872L822.276 297.188L820.944 296.876L820.993 296.665C821.083 296.28 821.031 295.923 820.837 295.594C820.655 295.267 820.371 295.004 819.987 294.803L819.4 297.309C820.343 297.653 821.016 298.094 821.42 298.633C821.838 299.162 821.962 299.789 821.793 300.513L821.768 300.618C821.585 301.401 821.162 301.968 820.501 302.318C819.854 302.66 819.074 302.754 818.161 302.602L817.91 303.671L816.648 303.375L816.907 302.271C816.412 302.069 816.001 301.825 815.674 301.539C815.361 301.244 815.114 300.927 814.935 300.589C814.769 300.242 814.667 299.892 814.626 299.537C814.589 299.171 814.61 298.819 814.689 298.48L814.788 298.059L816.12 298.371L816.07 298.581C815.939 299.142 815.974 299.625 816.175 300.029C816.376 300.434 816.72 300.755 817.207 300.992L817.876 298.135C817.027 297.813 816.414 297.405 816.037 296.91C815.674 296.406 815.575 295.803 815.739 295.102L815.764 294.997C815.851 294.623 815.998 294.312 816.204 294.065C816.424 293.808 816.68 293.609 816.972 293.468C817.267 293.315 817.591 293.219 817.946 293.179C818.303 293.127 818.667 293.126 819.037 293.175L819.292 292.089L820.554 292.384L820.291 293.506ZM820.401 300.298C820.497 299.889 820.439 299.555 820.229 299.296C820.018 299.038 819.644 298.796 819.105 298.571L818.456 301.34C818.972 301.399 819.399 301.339 819.737 301.159C820.087 300.982 820.308 300.695 820.401 300.298ZM817.131 295.317C817.054 295.644 817.085 295.935 817.222 296.189C817.374 296.434 817.691 296.662 818.171 296.873L818.742 294.437C818.354 294.408 818.009 294.463 817.705 294.601C817.401 294.74 817.21 294.978 817.131 295.317Z" fill="#7BF75C"/>
<path d="M736.082 572.961C736.438 573.195 736.734 573.462 736.97 573.761C737.222 574.054 737.408 574.364 737.527 574.691C737.646 575.018 737.704 575.351 737.7 575.689C737.701 576.017 737.635 576.335 737.501 576.643L737.371 576.94L736.117 576.393L736.203 576.195C736.362 575.832 736.375 575.472 736.243 575.113C736.122 574.759 735.891 574.449 735.549 574.182L734.521 576.542C735.386 577.05 735.968 577.605 736.269 578.207C736.585 578.803 736.594 579.442 736.297 580.124L736.254 580.223C735.933 580.96 735.415 581.442 734.702 581.667C734.004 581.887 733.219 581.839 732.348 581.525L731.91 582.531L730.722 582.013L731.175 580.974C730.724 580.686 730.364 580.372 730.093 580.031C729.839 579.685 729.653 579.329 729.537 578.964C729.437 578.593 729.399 578.23 729.424 577.874C729.453 577.507 729.537 577.164 729.676 576.845L729.849 576.449L731.103 576.996L731.016 577.194C730.786 577.722 730.733 578.203 730.858 578.637C730.983 579.071 731.264 579.448 731.7 579.769L732.872 577.08C732.095 576.61 731.566 576.098 731.284 575.543C731.018 574.982 731.029 574.372 731.317 573.712L731.36 573.613C731.513 573.261 731.714 572.981 731.961 572.775C732.224 572.562 732.511 572.413 732.824 572.327C733.141 572.229 733.478 572.193 733.834 572.217C734.195 572.23 734.553 572.295 734.908 572.41L735.354 571.387L736.542 571.905L736.082 572.961ZM734.967 579.662C735.135 579.277 735.138 578.938 734.978 578.646C734.818 578.353 734.492 578.048 734.003 577.73L732.866 580.337C733.363 580.488 733.794 580.506 734.159 580.39C734.535 580.279 734.804 580.036 734.967 579.662ZM732.647 574.174C732.513 574.482 732.49 574.773 732.58 575.048C732.686 575.316 732.956 575.598 733.39 575.892L734.39 573.598C734.014 573.5 733.664 573.491 733.341 573.573C733.017 573.654 732.786 573.855 732.647 574.174Z" fill="#7BF75C"/>
<path d="M1142.5 491.636C1142.78 491.316 1143.08 491.06 1143.41 490.868C1143.74 490.66 1144.07 490.52 1144.41 490.447C1144.75 490.375 1145.09 490.364 1145.43 490.416C1145.75 490.46 1146.06 490.571 1146.34 490.747L1146.62 490.917L1145.9 492.082L1145.72 491.969C1145.38 491.761 1145.02 491.697 1144.65 491.778C1144.28 491.847 1143.94 492.033 1143.63 492.334L1145.82 493.683C1146.45 492.898 1147.08 492.399 1147.72 492.186C1148.35 491.956 1148.99 492.036 1149.62 492.426L1149.71 492.483C1150.4 492.904 1150.8 493.484 1150.92 494.222C1151.04 494.944 1150.89 495.714 1150.45 496.532L1151.39 497.108L1150.71 498.211L1149.74 497.617C1149.4 498.023 1149.03 498.336 1148.66 498.556C1148.28 498.759 1147.9 498.893 1147.52 498.957C1147.14 499.004 1146.78 498.99 1146.43 498.917C1146.07 498.836 1145.74 498.705 1145.45 498.523L1145.08 498.296L1145.8 497.131L1145.98 497.244C1146.47 497.546 1146.94 497.666 1147.39 497.603C1147.83 497.54 1148.25 497.315 1148.63 496.928L1146.13 495.391C1145.55 496.094 1144.97 496.547 1144.38 496.748C1143.79 496.933 1143.19 496.836 1142.57 496.459L1142.48 496.402C1142.15 496.201 1141.91 495.964 1141.74 495.69C1141.56 495.4 1141.45 495.094 1141.41 494.773C1141.36 494.445 1141.37 494.106 1141.45 493.757C1141.51 493.402 1141.62 493.057 1141.79 492.721L1140.84 492.136L1141.52 491.032L1142.5 491.636ZM1148.98 493.678C1148.62 493.458 1148.28 493.407 1147.97 493.525C1147.66 493.643 1147.31 493.922 1146.93 494.362L1149.35 495.853C1149.57 495.382 1149.65 494.958 1149.58 494.581C1149.53 494.193 1149.32 493.892 1148.98 493.678ZM1143.22 495.207C1143.5 495.383 1143.79 495.446 1144.07 495.395C1144.35 495.329 1144.67 495.101 1145.02 494.711L1142.89 493.4C1142.74 493.759 1142.68 494.104 1142.72 494.435C1142.76 494.767 1142.92 495.024 1143.22 495.207Z" fill="#7BF75C"/>
<path d="M779.126 168.132C779.547 168.199 779.927 168.32 780.265 168.496C780.615 168.659 780.912 168.865 781.155 169.114C781.399 169.363 781.588 169.643 781.724 169.953C781.86 170.251 781.93 170.568 781.934 170.904L781.939 171.228L780.571 171.246L780.568 171.03C780.563 170.634 780.427 170.3 780.159 170.027C779.903 169.755 779.565 169.567 779.144 169.464L779.177 172.038C780.174 172.145 780.934 172.411 781.455 172.837C781.989 173.25 782.26 173.828 782.27 174.572L782.271 174.68C782.281 175.484 782.008 176.136 781.45 176.635C780.904 177.122 780.17 177.402 779.247 177.474L779.261 178.572L777.965 178.588L777.95 177.454C777.421 177.377 776.964 177.239 776.577 177.04C776.202 176.829 775.887 176.581 775.631 176.296C775.388 175.999 775.203 175.684 775.079 175.349C774.955 175.003 774.89 174.656 774.886 174.308L774.88 173.876L776.248 173.858L776.251 174.074C776.258 174.65 776.408 175.11 776.701 175.454C776.993 175.799 777.404 176.027 777.934 176.14L777.896 173.207C776.994 173.098 776.301 172.849 775.816 172.459C775.343 172.057 775.101 171.497 775.092 170.777L775.091 170.669C775.086 170.285 775.154 169.948 775.294 169.658C775.446 169.356 775.647 169.101 775.896 168.894C776.145 168.675 776.437 168.503 776.771 168.379C777.106 168.242 777.459 168.154 777.83 168.113L777.816 166.997L779.112 166.98L779.126 168.132ZM780.867 174.698C780.862 174.279 780.726 173.968 780.459 173.768C780.193 173.567 779.771 173.423 779.194 173.334L779.23 176.178C779.745 176.111 780.145 175.95 780.43 175.694C780.727 175.438 780.872 175.106 780.867 174.698ZM776.495 170.651C776.499 170.986 776.599 171.261 776.793 171.475C777 171.676 777.362 171.821 777.879 171.911L777.847 169.409C777.464 169.474 777.141 169.61 776.88 169.817C776.619 170.025 776.49 170.303 776.495 170.651Z" fill="#7BF75C"/>
<path d="M1033.42 274.959C1033.1 275.242 1032.77 275.46 1032.42 275.611C1032.07 275.779 1031.72 275.878 1031.37 275.909C1031.03 275.94 1030.69 275.91 1030.36 275.819C1030.05 275.736 1029.76 275.589 1029.49 275.38L1029.24 275.178L1030.09 274.108L1030.26 274.242C1030.57 274.489 1030.92 274.595 1031.3 274.56C1031.67 274.534 1032.03 274.391 1032.38 274.129L1030.36 272.527C1029.65 273.232 1028.96 273.652 1028.3 273.787C1027.64 273.939 1027.02 273.783 1026.44 273.32L1026.36 273.253C1025.73 272.752 1025.4 272.128 1025.36 271.38C1025.33 270.65 1025.58 269.904 1026.11 269.143L1025.25 268.46L1026.05 267.446L1026.94 268.152C1027.34 267.791 1027.73 267.523 1028.13 267.35C1028.53 267.193 1028.92 267.106 1029.3 267.088C1029.69 267.087 1030.05 267.144 1030.39 267.259C1030.73 267.382 1031.04 267.551 1031.32 267.768L1031.65 268.037L1030.8 269.108L1030.63 268.973C1030.18 268.615 1029.73 268.44 1029.28 268.448C1028.83 268.457 1028.39 268.631 1027.97 268.969L1030.27 270.796C1030.92 270.166 1031.55 269.787 1032.16 269.657C1032.77 269.545 1033.36 269.713 1033.92 270.161L1034.01 270.229C1034.31 270.468 1034.52 270.733 1034.66 271.025C1034.8 271.334 1034.87 271.65 1034.87 271.975C1034.88 272.306 1034.83 272.641 1034.72 272.979C1034.61 273.324 1034.46 273.653 1034.25 273.967L1035.13 274.661L1034.32 275.676L1033.42 274.959ZM1027.23 272.154C1027.56 272.415 1027.89 272.506 1028.21 272.427C1028.53 272.347 1028.91 272.112 1029.35 271.72L1027.12 269.95C1026.85 270.391 1026.72 270.803 1026.74 271.185C1026.75 271.577 1026.91 271.9 1027.23 272.154ZM1033.13 271.327C1032.87 271.118 1032.59 271.022 1032.3 271.037C1032.02 271.07 1031.68 271.258 1031.28 271.603L1033.24 273.16C1033.43 272.822 1033.53 272.486 1033.53 272.153C1033.54 271.819 1033.4 271.544 1033.13 271.327Z" fill="#7BF75C"/>
<path d="M210.065 271.566C210.322 271.907 210.51 272.258 210.631 272.619C210.769 272.98 210.839 273.335 210.841 273.683C210.843 274.031 210.785 274.363 210.667 274.681C210.558 274.99 210.387 275.267 210.157 275.511L209.935 275.747L208.939 274.809L209.087 274.652C209.359 274.363 209.493 274.028 209.49 273.646C209.496 273.273 209.383 272.902 209.152 272.536L207.387 274.409C208.029 275.18 208.39 275.899 208.469 276.567C208.566 277.235 208.359 277.84 207.849 278.381L207.774 278.46C207.223 279.045 206.573 279.323 205.826 279.294C205.095 279.265 204.372 278.956 203.659 278.366L202.906 279.165L201.963 278.276L202.74 277.451C202.413 277.027 202.18 276.61 202.041 276.198C201.918 275.786 201.864 275.388 201.878 275.006C201.909 274.623 201.996 274.268 202.139 273.941C202.29 273.606 202.485 273.311 202.724 273.058L203.02 272.744L204.016 273.682L203.868 273.839C203.473 274.258 203.261 274.693 203.232 275.144C203.203 275.595 203.339 276.045 203.641 276.494L205.653 274.359C205.081 273.654 204.755 272.993 204.678 272.376C204.617 271.758 204.833 271.187 205.327 270.663L205.401 270.585C205.664 270.305 205.947 270.11 206.249 269.999C206.569 269.888 206.89 269.844 207.213 269.869C207.545 269.884 207.874 269.963 208.201 270.107C208.536 270.241 208.851 270.423 209.147 270.651L209.912 269.839L210.855 270.728L210.065 271.566ZM206.753 277.497C207.041 277.191 207.159 276.874 207.106 276.544C207.054 276.215 206.851 275.817 206.498 275.352L204.547 277.422C204.964 277.733 205.364 277.895 205.746 277.909C206.137 277.931 206.473 277.794 206.753 277.497ZM206.423 271.547C206.192 271.792 206.073 272.059 206.065 272.348C206.073 272.636 206.232 272.992 206.542 273.416L208.258 271.595C207.937 271.375 207.611 271.249 207.279 271.216C206.947 271.184 206.661 271.294 206.423 271.547Z" fill="#7BF75C"/>
<path d="M201.291 134.506C201.683 134.672 202.023 134.881 202.309 135.133C202.609 135.376 202.848 135.647 203.024 135.947C203.2 136.247 203.317 136.564 203.374 136.898C203.434 137.22 203.426 137.545 203.349 137.872L203.276 138.188L201.944 137.876L201.993 137.665C202.083 137.28 202.031 136.923 201.837 136.594C201.655 136.267 201.371 136.004 200.987 135.803L200.4 138.309C201.343 138.653 202.016 139.094 202.42 139.633C202.838 140.162 202.962 140.789 202.793 141.513L202.768 141.618C202.585 142.401 202.162 142.968 201.501 143.318C200.854 143.66 200.074 143.754 199.161 143.602L198.91 144.671L197.648 144.375L197.907 143.271C197.412 143.069 197.001 142.825 196.673 142.539C196.361 142.244 196.114 141.927 195.935 141.589C195.769 141.242 195.667 140.892 195.626 140.537C195.589 140.171 195.61 139.819 195.689 139.48L195.788 139.059L197.12 139.371L197.07 139.581C196.939 140.142 196.974 140.625 197.175 141.029C197.376 141.434 197.72 141.755 198.207 141.992L198.876 139.135C198.027 138.813 197.414 138.405 197.037 137.91C196.674 137.406 196.575 136.803 196.739 136.102L196.764 135.997C196.851 135.623 196.998 135.312 197.204 135.065C197.424 134.808 197.68 134.609 197.972 134.468C198.267 134.315 198.591 134.219 198.946 134.179C199.303 134.127 199.667 134.126 200.037 134.175L200.292 133.089L201.553 133.384L201.291 134.506ZM201.401 141.298C201.497 140.889 201.439 140.555 201.229 140.296C201.018 140.038 200.644 139.796 200.105 139.571L199.456 142.34C199.972 142.399 200.399 142.339 200.737 142.159C201.087 141.982 201.308 141.695 201.401 141.298ZM198.131 136.317C198.054 136.644 198.084 136.935 198.222 137.189C198.374 137.434 198.691 137.662 199.171 137.873L199.742 135.437C199.354 135.408 199.009 135.463 198.705 135.601C198.401 135.74 198.21 135.978 198.131 136.317Z" fill="#7BF75C"/>
<path d="M117.082 413.961C117.438 414.195 117.734 414.462 117.97 414.761C118.222 415.054 118.408 415.364 118.527 415.691C118.646 416.018 118.704 416.351 118.7 416.689C118.701 417.017 118.635 417.335 118.501 417.643L118.371 417.94L117.117 417.393L117.203 417.195C117.362 416.832 117.375 416.472 117.243 416.113C117.122 415.759 116.891 415.449 116.549 415.182L115.521 417.542C116.386 418.05 116.968 418.605 117.269 419.207C117.585 419.803 117.594 420.442 117.297 421.124L117.254 421.223C116.933 421.96 116.415 422.442 115.702 422.667C115.004 422.887 114.219 422.839 113.348 422.525L112.91 423.531L111.722 423.013L112.175 421.974C111.724 421.686 111.364 421.372 111.093 421.031C110.839 420.685 110.653 420.329 110.537 419.964C110.437 419.593 110.399 419.23 110.424 418.874C110.453 418.507 110.537 418.164 110.676 417.845L110.849 417.449L112.103 417.996L112.016 418.194C111.786 418.722 111.733 419.203 111.858 419.637C111.983 420.071 112.264 420.448 112.7 420.769L113.872 418.08C113.095 417.61 112.566 417.098 112.284 416.543C112.018 415.982 112.029 415.372 112.317 414.712L112.36 414.613C112.513 414.261 112.714 413.981 112.961 413.775C113.224 413.562 113.511 413.413 113.824 413.327C114.141 413.229 114.478 413.193 114.834 413.217C115.195 413.23 115.553 413.295 115.908 413.41L116.354 412.387L117.542 412.905L117.082 413.961ZM115.967 420.662C116.135 420.277 116.138 419.938 115.978 419.646C115.818 419.353 115.492 419.048 115.003 418.73L113.866 421.337C114.363 421.488 114.794 421.506 115.159 421.39C115.535 421.279 115.804 421.036 115.967 420.662ZM113.647 415.174C113.513 415.482 113.49 415.773 113.58 416.048C113.686 416.316 113.956 416.598 114.39 416.892L115.39 414.598C115.014 414.5 114.664 414.491 114.341 414.573C114.017 414.654 113.786 414.855 113.647 415.174Z" fill="#7BF75C"/>
<path d="M523.498 332.636C523.779 332.316 524.085 332.06 524.414 331.868C524.74 331.66 525.073 331.52 525.413 331.447C525.753 331.375 526.091 331.364 526.426 331.416C526.751 331.46 527.056 331.571 527.342 331.747L527.618 331.917L526.901 333.082L526.717 332.969C526.38 332.761 526.025 332.697 525.651 332.778C525.284 332.847 524.945 333.033 524.632 333.334L526.825 334.683C527.449 333.898 528.08 333.399 528.718 333.186C529.353 332.956 529.987 333.036 530.62 333.426L530.712 333.483C531.397 333.904 531.801 334.484 531.925 335.222C532.044 335.944 531.887 336.714 531.454 337.532L532.389 338.108L531.71 339.211L530.744 338.617C530.396 339.023 530.034 339.336 529.659 339.556C529.28 339.759 528.902 339.893 528.525 339.957C528.144 340.004 527.779 339.99 527.429 339.917C527.07 339.836 526.742 339.705 526.446 339.523L526.078 339.296L526.795 338.131L526.979 338.244C527.47 338.546 527.939 338.666 528.386 338.603C528.833 338.54 529.246 338.315 529.625 337.928L527.126 336.391C526.553 337.094 525.971 337.547 525.382 337.748C524.79 337.933 524.187 337.836 523.573 337.459L523.481 337.402C523.154 337.201 522.906 336.964 522.736 336.69C522.562 336.4 522.455 336.094 522.413 335.773C522.361 335.445 522.372 335.106 522.446 334.757C522.51 334.402 522.624 334.057 522.788 333.721L521.838 333.136L522.517 332.032L523.498 332.636ZM529.977 334.678C529.619 334.458 529.284 334.407 528.972 334.525C528.66 334.643 528.312 334.922 527.928 335.362L530.35 336.853C530.57 336.382 530.648 335.958 530.584 335.581C530.527 335.193 530.324 334.892 529.977 334.678ZM524.217 336.207C524.503 336.383 524.789 336.446 525.073 336.395C525.354 336.329 525.671 336.101 526.023 335.711L523.892 334.4C523.742 334.759 523.684 335.104 523.72 335.435C523.755 335.767 523.921 336.024 524.217 336.207Z" fill="#7BF75C"/>
<path d="M160.126 9.13238C160.547 9.19897 160.927 9.32008 161.265 9.49574C161.615 9.65924 161.912 9.86544 162.155 10.1143C162.399 10.3632 162.588 10.6428 162.724 10.9531C162.86 11.2513 162.93 11.5685 162.934 11.9044L162.939 12.2284L161.571 12.246L161.568 12.0301C161.563 11.6341 161.427 11.2998 161.159 11.0272C160.903 10.7545 160.565 10.5669 160.144 10.4643L160.177 13.0381C161.174 13.1452 161.934 13.4115 162.455 13.8368C162.989 14.2499 163.26 14.8285 163.27 15.5724L163.271 15.6804C163.281 16.4843 163.008 17.1359 162.45 17.6351C161.904 18.1222 161.17 18.4017 160.247 18.4736L160.261 19.5715L158.965 19.5882L158.95 18.4543C158.421 18.3771 157.964 18.239 157.577 18.04C157.202 17.8288 156.887 17.5808 156.631 17.2961C156.388 16.9992 156.203 16.6836 156.079 16.3491C155.955 16.0027 155.89 15.6555 155.886 15.3075L155.88 14.8756L157.248 14.8579L157.251 15.0739C157.258 15.6499 157.408 16.11 157.701 16.4542C157.993 16.7985 158.404 17.0272 158.934 17.1404L158.896 14.2067C157.994 14.0983 157.301 13.8492 156.816 13.4594C156.343 13.0575 156.101 12.4965 156.092 11.7766L156.091 11.6686C156.086 11.2846 156.154 10.9477 156.294 10.6579C156.446 10.3559 156.647 10.1013 156.896 9.89407C157.145 9.67484 157.437 9.50307 157.771 9.37875C158.106 9.24243 158.459 9.15388 158.83 9.11309L158.816 7.99718L160.112 7.98048L160.126 9.13238ZM161.867 15.6985C161.862 15.2785 161.726 14.9683 161.459 14.7677C161.193 14.5671 160.771 14.4225 160.194 14.334L160.23 17.1777C160.745 17.1111 161.145 16.9499 161.43 16.6942C161.727 16.4384 161.872 16.1065 161.867 15.6985ZM157.495 11.6505C157.499 11.9865 157.599 12.2612 157.793 12.4747C158 12.6761 158.362 12.8214 158.879 12.9108L158.847 10.409C158.464 10.4739 158.141 10.6101 157.88 10.8175C157.619 11.0249 157.49 11.3025 157.495 11.6505Z" fill="#7BF75C"/>
<path d="M414.418 115.959C414.1 116.242 413.766 116.46 413.416 116.611C413.068 116.779 412.72 116.878 412.374 116.909C412.027 116.94 411.691 116.91 411.364 116.819C411.047 116.736 410.757 116.589 410.494 116.38L410.241 116.178L411.092 115.108L411.261 115.242C411.571 115.489 411.917 115.595 412.297 115.56C412.67 115.534 413.029 115.391 413.375 115.129L411.361 113.527C410.647 114.232 409.96 114.652 409.301 114.787C408.643 114.939 408.024 114.783 407.441 114.32L407.357 114.253C406.728 113.752 406.396 113.128 406.362 112.38C406.33 111.65 406.578 110.904 407.106 110.143L406.247 109.46L407.053 108.446L407.941 109.152C408.335 108.791 408.732 108.523 409.131 108.35C409.531 108.193 409.923 108.106 410.305 108.088C410.689 108.087 411.05 108.144 411.388 108.259C411.735 108.382 412.045 108.551 412.317 108.768L412.655 109.037L411.803 110.108L411.634 109.973C411.184 109.615 410.732 109.44 410.281 109.448C409.829 109.457 409.392 109.631 408.969 109.969L411.266 111.796C411.92 111.166 412.551 110.787 413.16 110.657C413.771 110.545 414.358 110.713 414.921 111.161L415.006 111.229C415.306 111.468 415.524 111.733 415.66 112.025C415.798 112.334 415.868 112.65 415.871 112.975C415.883 113.306 415.832 113.641 415.716 113.979C415.611 114.324 415.456 114.653 415.253 114.967L416.126 115.661L415.319 116.676L414.418 115.959ZM408.231 113.154C408.559 113.415 408.886 113.506 409.21 113.427C409.534 113.347 409.913 113.112 410.346 112.72L408.12 110.95C407.846 111.391 407.718 111.803 407.736 112.185C407.747 112.577 407.911 112.9 408.231 113.154ZM414.132 112.327C413.869 112.118 413.593 112.022 413.304 112.037C413.018 112.07 412.676 112.258 412.28 112.603L414.238 114.16C414.43 113.822 414.529 113.486 414.533 113.153C414.538 112.819 414.404 112.544 414.132 112.327Z" fill="#7BF75C"/>
<path d="M1412.07 632.566C1412.32 632.907 1412.51 633.258 1412.63 633.619C1412.77 633.98 1412.84 634.335 1412.84 634.683C1412.84 635.031 1412.79 635.363 1412.67 635.681C1412.56 635.99 1412.39 636.267 1412.16 636.511L1411.93 636.747L1410.94 635.809L1411.09 635.652C1411.36 635.363 1411.49 635.028 1411.49 634.646C1411.5 634.273 1411.38 633.902 1411.15 633.536L1409.39 635.409C1410.03 636.18 1410.39 636.899 1410.47 637.567C1410.57 638.235 1410.36 638.84 1409.85 639.381L1409.77 639.46C1409.22 640.045 1408.57 640.323 1407.83 640.294C1407.09 640.265 1406.37 639.956 1405.66 639.366L1404.91 640.165L1403.96 639.276L1404.74 638.451C1404.41 638.027 1404.18 637.61 1404.04 637.198C1403.92 636.786 1403.86 636.388 1403.88 636.006C1403.91 635.623 1404 635.268 1404.14 634.941C1404.29 634.606 1404.49 634.311 1404.72 634.058L1405.02 633.744L1406.02 634.682L1405.87 634.839C1405.47 635.258 1405.26 635.693 1405.23 636.144C1405.2 636.595 1405.34 637.045 1405.64 637.494L1407.65 635.359C1407.08 634.654 1406.76 633.993 1406.68 633.376C1406.62 632.758 1406.83 632.187 1407.33 631.663L1407.4 631.585C1407.66 631.305 1407.95 631.11 1408.25 630.999C1408.57 630.888 1408.89 630.844 1409.21 630.869C1409.54 630.884 1409.87 630.963 1410.2 631.107C1410.54 631.241 1410.85 631.423 1411.15 631.651L1411.91 630.839L1412.86 631.728L1412.07 632.566ZM1408.75 638.497C1409.04 638.191 1409.16 637.874 1409.11 637.544C1409.05 637.215 1408.85 636.817 1408.5 636.352L1406.55 638.422C1406.96 638.733 1407.36 638.895 1407.75 638.909C1408.14 638.931 1408.47 638.794 1408.75 638.497ZM1408.42 632.547C1408.19 632.792 1408.07 633.059 1408.06 633.348C1408.07 633.636 1408.23 633.992 1408.54 634.416L1410.26 632.595C1409.94 632.375 1409.61 632.249 1409.28 632.216C1408.95 632.184 1408.66 632.294 1408.42 632.547Z" fill="#7BF75C"/>
<path d="M1403.29 495.506C1403.68 495.672 1404.02 495.881 1404.31 496.133C1404.61 496.376 1404.85 496.647 1405.02 496.947C1405.2 497.247 1405.32 497.564 1405.37 497.898C1405.43 498.22 1405.43 498.545 1405.35 498.872L1405.28 499.188L1403.94 498.876L1403.99 498.665C1404.08 498.28 1404.03 497.923 1403.84 497.594C1403.65 497.267 1403.37 497.004 1402.99 496.803L1402.4 499.309C1403.34 499.653 1404.02 500.094 1404.42 500.633C1404.84 501.162 1404.96 501.789 1404.79 502.513L1404.77 502.618C1404.58 503.401 1404.16 503.968 1403.5 504.318C1402.85 504.66 1402.07 504.754 1401.16 504.602L1400.91 505.671L1399.65 505.375L1399.91 504.271C1399.41 504.069 1399 503.825 1398.67 503.539C1398.36 503.244 1398.11 502.927 1397.93 502.589C1397.77 502.242 1397.67 501.892 1397.63 501.537C1397.59 501.171 1397.61 500.819 1397.69 500.48L1397.79 500.059L1399.12 500.371L1399.07 500.581C1398.94 501.142 1398.97 501.625 1399.17 502.029C1399.38 502.434 1399.72 502.755 1400.21 502.992L1400.88 500.135C1400.03 499.813 1399.41 499.405 1399.04 498.91C1398.67 498.406 1398.57 497.803 1398.74 497.102L1398.76 496.997C1398.85 496.623 1399 496.312 1399.2 496.065C1399.42 495.808 1399.68 495.609 1399.97 495.468C1400.27 495.315 1400.59 495.219 1400.95 495.179C1401.3 495.127 1401.67 495.126 1402.04 495.175L1402.29 494.089L1403.55 494.384L1403.29 495.506ZM1403.4 502.298C1403.5 501.889 1403.44 501.555 1403.23 501.296C1403.02 501.038 1402.64 500.796 1402.1 500.571L1401.46 503.34C1401.97 503.399 1402.4 503.339 1402.74 503.159C1403.09 502.982 1403.31 502.695 1403.4 502.298ZM1400.13 497.317C1400.05 497.644 1400.08 497.935 1400.22 498.189C1400.37 498.434 1400.69 498.662 1401.17 498.873L1401.74 496.437C1401.35 496.408 1401.01 496.463 1400.7 496.601C1400.4 496.74 1400.21 496.978 1400.13 497.317Z" fill="#7BF75C"/>
<path d="M1319.08 774.961C1319.44 775.195 1319.73 775.462 1319.97 775.761C1320.22 776.054 1320.41 776.364 1320.53 776.691C1320.65 777.018 1320.7 777.351 1320.7 777.689C1320.7 778.017 1320.63 778.335 1320.5 778.643L1320.37 778.94L1319.12 778.393L1319.2 778.195C1319.36 777.832 1319.37 777.472 1319.24 777.113C1319.12 776.759 1318.89 776.449 1318.55 776.182L1317.52 778.542C1318.39 779.05 1318.97 779.605 1319.27 780.207C1319.59 780.803 1319.59 781.442 1319.3 782.124L1319.25 782.223C1318.93 782.96 1318.42 783.442 1317.7 783.667C1317 783.887 1316.22 783.839 1315.35 783.525L1314.91 784.531L1313.72 784.013L1314.17 782.974C1313.72 782.686 1313.36 782.372 1313.09 782.031C1312.84 781.685 1312.65 781.329 1312.54 780.964C1312.44 780.593 1312.4 780.23 1312.42 779.874C1312.45 779.507 1312.54 779.164 1312.68 778.845L1312.85 778.449L1314.1 778.996L1314.02 779.194C1313.79 779.722 1313.73 780.203 1313.86 780.637C1313.98 781.071 1314.26 781.448 1314.7 781.769L1315.87 779.08C1315.1 778.61 1314.57 778.098 1314.28 777.543C1314.02 776.982 1314.03 776.372 1314.32 775.712L1314.36 775.613C1314.51 775.261 1314.71 774.981 1314.96 774.775C1315.22 774.562 1315.51 774.413 1315.82 774.327C1316.14 774.229 1316.48 774.193 1316.83 774.217C1317.19 774.23 1317.55 774.295 1317.91 774.41L1318.35 773.387L1319.54 773.905L1319.08 774.961ZM1317.97 781.662C1318.13 781.277 1318.14 780.938 1317.98 780.646C1317.82 780.353 1317.49 780.048 1317 779.73L1315.87 782.337C1316.36 782.488 1316.79 782.506 1317.16 782.39C1317.53 782.279 1317.8 782.036 1317.97 781.662ZM1315.65 776.174C1315.51 776.482 1315.49 776.773 1315.58 777.048C1315.69 777.316 1315.96 777.598 1316.39 777.892L1317.39 775.598C1317.01 775.5 1316.66 775.491 1316.34 775.573C1316.02 775.654 1315.79 775.855 1315.65 776.174Z" fill="#7BF75C"/>
<path d="M1362.13 370.132C1362.55 370.199 1362.93 370.32 1363.27 370.496C1363.62 370.659 1363.91 370.865 1364.16 371.114C1364.4 371.363 1364.59 371.643 1364.72 371.953C1364.86 372.251 1364.93 372.569 1364.93 372.904L1364.94 373.228L1363.57 373.246L1363.57 373.03C1363.56 372.634 1363.43 372.3 1363.16 372.027C1362.9 371.755 1362.56 371.567 1362.14 371.464L1362.18 374.038C1363.17 374.145 1363.93 374.412 1364.46 374.837C1364.99 375.25 1365.26 375.829 1365.27 376.572L1365.27 376.68C1365.28 377.484 1365.01 378.136 1364.45 378.635C1363.9 379.122 1363.17 379.402 1362.25 379.474L1362.26 380.572L1360.97 380.588L1360.95 379.454C1360.42 379.377 1359.96 379.239 1359.58 379.04C1359.2 378.829 1358.89 378.581 1358.63 378.296C1358.39 377.999 1358.2 377.684 1358.08 377.349C1357.95 377.003 1357.89 376.656 1357.89 376.308L1357.88 375.876L1359.25 375.858L1359.25 376.074C1359.26 376.65 1359.41 377.11 1359.7 377.454C1359.99 377.799 1360.4 378.027 1360.93 378.14L1360.9 375.207C1359.99 375.098 1359.3 374.849 1358.82 374.459C1358.34 374.058 1358.1 373.497 1358.09 372.777L1358.09 372.669C1358.09 372.285 1358.15 371.948 1358.29 371.658C1358.45 371.356 1358.65 371.101 1358.9 370.894C1359.15 370.675 1359.44 370.503 1359.77 370.379C1360.11 370.242 1360.46 370.154 1360.83 370.113L1360.82 368.997L1362.11 368.981L1362.13 370.132ZM1363.87 376.699C1363.86 376.279 1363.73 375.968 1363.46 375.768C1363.19 375.567 1362.77 375.423 1362.19 375.334L1362.23 378.178C1362.75 378.111 1363.15 377.95 1363.43 377.694C1363.73 377.438 1363.87 377.107 1363.87 376.699ZM1359.49 372.651C1359.5 372.987 1359.6 373.261 1359.79 373.475C1360 373.676 1360.36 373.821 1360.88 373.911L1360.85 371.409C1360.46 371.474 1360.14 371.61 1359.88 371.818C1359.62 372.025 1359.49 372.303 1359.49 372.651Z" fill="#7BF75C"/>
<path d="M1025.28 950.957C1025.37 951.374 1025.39 951.772 1025.35 952.15C1025.32 952.536 1025.24 952.887 1025.09 953.203C1024.95 953.519 1024.75 953.796 1024.51 954.034C1024.28 954.268 1024.01 954.447 1023.7 954.571L1023.4 954.691L1022.89 953.421L1023.09 953.341C1023.46 953.194 1023.72 952.947 1023.88 952.6C1024.05 952.263 1024.1 951.88 1024.04 951.45L1021.65 952.403C1021.91 953.372 1021.93 954.177 1021.72 954.816C1021.53 955.462 1021.09 955.923 1020.39 956.198L1020.29 956.238C1019.55 956.536 1018.84 956.514 1018.18 956.172C1017.53 955.837 1017 955.251 1016.6 954.415L1015.58 954.821L1015.1 953.617L1016.16 953.198C1016.04 952.676 1016 952.199 1016.05 951.767C1016.12 951.341 1016.23 950.958 1016.41 950.617C1016.6 950.283 1016.83 949.999 1017.09 949.763C1017.37 949.522 1017.67 949.338 1018 949.209L1018.4 949.049L1018.91 950.32L1018.7 950.4C1018.17 950.613 1017.79 950.918 1017.58 951.314C1017.36 951.711 1017.29 952.176 1017.38 952.711L1020.1 951.625C1019.88 950.745 1019.87 950.008 1020.06 949.416C1020.26 948.83 1020.7 948.404 1021.37 948.137L1021.47 948.097C1021.83 947.955 1022.16 947.898 1022.48 947.925C1022.82 947.959 1023.13 948.055 1023.41 948.214C1023.71 948.368 1023.97 948.579 1024.21 948.846C1024.46 949.11 1024.66 949.407 1024.84 949.74L1025.87 949.327L1026.35 950.531L1025.28 950.957ZM1019.77 954.934C1020.16 954.778 1020.41 954.54 1020.5 954.22C1020.59 953.899 1020.57 953.453 1020.45 952.882L1017.81 953.935C1018.05 954.392 1018.35 954.708 1018.69 954.882C1019.03 955.068 1019.4 955.085 1019.77 954.934ZM1021.99 949.402C1021.68 949.526 1021.46 949.717 1021.33 949.976C1021.21 950.241 1021.21 950.631 1021.31 951.145L1023.63 950.219C1023.43 949.885 1023.19 949.633 1022.9 949.463C1022.62 949.293 1022.31 949.273 1021.99 949.402Z" fill="#7BF75C"/>
<path d="M1075.21 823.012C1075.49 823.328 1075.71 823.66 1075.87 824.01C1076.03 824.357 1076.14 824.703 1076.17 825.05C1076.2 825.396 1076.17 825.733 1076.09 826.06C1076 826.377 1075.86 826.668 1075.65 826.932L1075.45 827.187L1074.38 826.342L1074.51 826.172C1074.75 825.861 1074.86 825.515 1074.82 825.135C1074.79 824.762 1074.65 824.403 1074.38 824.059L1072.79 826.083C1073.5 826.793 1073.93 827.477 1074.07 828.135C1074.22 828.792 1074.07 829.413 1073.61 829.998L1073.54 830.082C1073.05 830.715 1072.42 831.05 1071.68 831.088C1070.95 831.125 1070.2 830.881 1069.43 830.357L1068.76 831.221L1067.74 830.42L1068.44 829.528C1068.07 829.136 1067.81 828.741 1067.63 828.343C1067.47 827.944 1067.38 827.553 1067.36 827.171C1067.36 826.786 1067.41 826.425 1067.53 826.087C1067.65 825.739 1067.81 825.428 1068.03 825.155L1068.3 824.815L1069.37 825.66L1069.24 825.83C1068.88 826.283 1068.71 826.735 1068.72 827.187C1068.73 827.638 1068.91 828.074 1069.25 828.495L1071.06 826.188C1070.43 825.538 1070.05 824.908 1069.91 824.3C1069.8 823.691 1069.96 823.102 1070.41 822.536L1070.47 822.451C1070.71 822.149 1070.98 821.93 1071.27 821.792C1071.57 821.653 1071.89 821.581 1072.21 821.576C1072.55 821.562 1072.88 821.611 1073.22 821.725C1073.57 821.828 1073.9 821.981 1074.21 822.183L1074.9 821.305L1075.92 822.106L1075.21 823.012ZM1072.44 829.215C1072.7 828.885 1072.79 828.558 1072.71 828.234C1072.62 827.911 1072.39 827.533 1071.99 827.102L1070.24 829.338C1070.68 829.61 1071.09 829.736 1071.47 829.715C1071.86 829.703 1072.19 829.536 1072.44 829.215ZM1071.58 823.319C1071.37 823.583 1071.27 823.859 1071.29 824.148C1071.33 824.434 1071.52 824.775 1071.86 825.169L1073.41 823.202C1073.07 823.012 1072.73 822.915 1072.4 822.913C1072.07 822.91 1071.79 823.045 1071.58 823.319Z" fill="#7BF75C"/>
<path d="M880.864 1040.77C881.089 1041.13 881.244 1041.5 881.332 1041.87C881.437 1042.24 881.474 1042.6 881.444 1042.95C881.414 1043.29 881.326 1043.62 881.18 1043.92C881.042 1044.22 880.848 1044.48 880.596 1044.7L880.353 1044.92L879.447 1043.89L879.609 1043.75C879.906 1043.49 880.07 1043.17 880.102 1042.79C880.142 1042.41 880.063 1042.04 879.866 1041.65L877.937 1043.35C878.507 1044.18 878.801 1044.93 878.819 1045.6C878.854 1046.28 878.592 1046.86 878.035 1047.35L877.954 1047.42C877.351 1047.95 876.679 1048.17 875.937 1048.08C875.212 1047.98 874.521 1047.61 873.864 1046.95L873.041 1047.68L872.183 1046.71L873.033 1045.96C872.746 1045.51 872.552 1045.07 872.451 1044.65C872.366 1044.23 872.348 1043.82 872.397 1043.44C872.463 1043.07 872.582 1042.72 872.755 1042.41C872.936 1042.09 873.157 1041.81 873.418 1041.58L873.741 1041.3L874.647 1042.32L874.485 1042.46C874.054 1042.85 873.803 1043.26 873.733 1043.71C873.663 1044.15 873.758 1044.61 874.017 1045.09L876.216 1043.15C875.71 1042.39 875.446 1041.7 875.425 1041.08C875.421 1040.46 875.689 1039.91 876.228 1039.43L876.309 1039.36C876.597 1039.11 876.896 1038.94 877.208 1038.86C877.536 1038.78 877.86 1038.76 878.179 1038.82C878.508 1038.86 878.829 1038.97 879.141 1039.14C879.463 1039.31 879.76 1039.52 880.033 1039.77L880.869 1039.03L881.728 1040L880.864 1040.77ZM877.024 1046.37C877.339 1046.09 877.485 1045.79 877.463 1045.45C877.441 1045.12 877.276 1044.71 876.966 1044.21L874.835 1046.09C875.222 1046.44 875.605 1046.64 875.984 1046.69C876.372 1046.75 876.718 1046.64 877.024 1046.37ZM877.239 1040.42C876.987 1040.64 876.844 1040.89 876.809 1041.18C876.791 1041.47 876.917 1041.84 877.187 1042.29L879.062 1040.63C878.763 1040.38 878.449 1040.23 878.122 1040.16C877.794 1040.1 877.5 1040.19 877.239 1040.42Z" fill="#7BF75C"/>
<path d="M1283.61 1138.67C1284 1138.5 1284.38 1138.4 1284.76 1138.36C1285.15 1138.31 1285.51 1138.33 1285.85 1138.4C1286.19 1138.48 1286.5 1138.62 1286.78 1138.8C1287.05 1138.98 1287.28 1139.21 1287.47 1139.49L1287.65 1139.76L1286.5 1140.51L1286.39 1140.33C1286.17 1140 1285.87 1139.8 1285.5 1139.71C1285.14 1139.62 1284.75 1139.64 1284.34 1139.78L1285.76 1141.93C1286.66 1141.48 1287.44 1141.3 1288.11 1141.38C1288.78 1141.44 1289.32 1141.78 1289.73 1142.4L1289.79 1142.49C1290.23 1143.16 1290.35 1143.85 1290.15 1144.58C1289.96 1145.28 1289.49 1145.91 1288.75 1146.47L1289.36 1147.39L1288.28 1148.1L1287.65 1147.15C1287.16 1147.38 1286.7 1147.51 1286.27 1147.55C1285.84 1147.57 1285.44 1147.53 1285.07 1147.43C1284.71 1147.31 1284.38 1147.15 1284.1 1146.93C1283.81 1146.71 1283.56 1146.45 1283.37 1146.16L1283.13 1145.8L1284.28 1145.05L1284.4 1145.23C1284.71 1145.71 1285.09 1146.01 1285.52 1146.15C1285.95 1146.28 1286.42 1146.25 1286.93 1146.06L1285.31 1143.61C1284.49 1144 1283.78 1144.17 1283.16 1144.1C1282.54 1144.02 1282.04 1143.68 1281.64 1143.08L1281.58 1142.99C1281.37 1142.67 1281.24 1142.35 1281.21 1142.03C1281.17 1141.69 1281.2 1141.37 1281.3 1141.06C1281.39 1140.74 1281.54 1140.44 1281.76 1140.15C1281.97 1139.86 1282.22 1139.59 1282.51 1139.36L1281.89 1138.42L1282.97 1137.71L1283.61 1138.67ZM1288.62 1143.26C1288.39 1142.91 1288.1 1142.72 1287.77 1142.7C1287.44 1142.67 1287.01 1142.78 1286.47 1143.02L1288.04 1145.39C1288.44 1145.05 1288.69 1144.7 1288.79 1144.33C1288.9 1143.96 1288.84 1143.6 1288.62 1143.26ZM1282.75 1142.21C1282.94 1142.49 1283.17 1142.67 1283.45 1142.75C1283.73 1142.8 1284.11 1142.73 1284.6 1142.53L1283.22 1140.44C1282.93 1140.7 1282.73 1140.99 1282.63 1141.3C1282.52 1141.62 1282.56 1141.92 1282.75 1142.21Z" fill="#7BF75C"/>
<path d="M1090.84 691.982C1091.19 692.22 1091.48 692.49 1091.72 692.792C1091.96 693.088 1092.15 693.4 1092.26 693.729C1092.38 694.057 1092.43 694.391 1092.42 694.729C1092.42 695.057 1092.35 695.374 1092.21 695.68L1092.08 695.976L1090.83 695.414L1090.92 695.217C1091.08 694.856 1091.1 694.496 1090.97 694.136C1090.86 693.78 1090.63 693.467 1090.29 693.197L1089.23 695.544C1090.09 696.062 1090.67 696.624 1090.96 697.23C1091.27 697.829 1091.27 698.469 1090.97 699.147L1090.92 699.245C1090.59 699.979 1090.07 700.454 1089.35 700.671C1088.65 700.882 1087.87 700.825 1087 700.5L1086.55 701.501L1085.37 700.969L1085.83 699.935C1085.39 699.642 1085.03 699.323 1084.76 698.98C1084.51 698.63 1084.33 698.272 1084.22 697.906C1084.13 697.534 1084.09 697.17 1084.12 696.815C1084.15 696.448 1084.24 696.106 1084.38 695.789L1084.56 695.395L1085.81 695.956L1085.72 696.153C1085.48 696.679 1085.43 697.159 1085.55 697.595C1085.67 698.03 1085.94 698.411 1086.37 698.737L1087.58 696.062C1086.81 695.583 1086.28 695.064 1086.01 694.506C1085.75 693.942 1085.77 693.332 1086.06 692.675L1086.11 692.577C1086.27 692.227 1086.47 691.95 1086.72 691.746C1086.98 691.537 1087.27 691.391 1087.59 691.308C1087.91 691.215 1088.24 691.182 1088.6 691.211C1088.96 691.228 1089.32 691.297 1089.67 691.417L1090.13 690.399L1091.31 690.932L1090.84 691.982ZM1089.64 698.669C1089.81 698.286 1089.82 697.947 1089.66 697.653C1089.51 697.359 1089.19 697.049 1088.7 696.725L1087.53 699.319C1088.03 699.476 1088.46 699.498 1088.82 699.387C1089.2 699.28 1089.47 699.041 1089.64 698.669ZM1087.39 693.153C1087.25 693.46 1087.22 693.751 1087.31 694.026C1087.41 694.296 1087.68 694.581 1088.11 694.88L1089.14 692.599C1088.76 692.496 1088.41 692.483 1088.09 692.561C1087.76 692.638 1087.53 692.836 1087.39 693.153Z" fill="#7BF75C"/>
<path d="M1276.23 896.2C1275.82 896.323 1275.43 896.379 1275.05 896.368C1274.66 896.373 1274.3 896.316 1273.98 896.198C1273.65 896.08 1273.36 895.911 1273.1 895.69C1272.85 895.481 1272.65 895.226 1272.5 894.925L1272.35 894.635L1273.58 894.024L1273.67 894.218C1273.85 894.572 1274.12 894.814 1274.48 894.943C1274.83 895.077 1275.21 895.099 1275.64 895.008L1274.49 892.705C1273.54 893.042 1272.74 893.133 1272.09 892.977C1271.43 892.837 1270.93 892.434 1270.6 891.768L1270.55 891.672C1270.19 890.952 1270.15 890.247 1270.44 889.554C1270.72 888.878 1271.26 888.307 1272.06 887.841L1271.57 886.859L1272.73 886.28L1273.23 887.294C1273.74 887.134 1274.22 887.059 1274.65 887.07C1275.08 887.097 1275.47 887.183 1275.83 887.328C1276.18 887.49 1276.48 887.694 1276.74 887.941C1277 888.199 1277.21 888.483 1277.36 888.795L1277.56 889.181L1276.33 889.792L1276.24 889.599C1275.98 889.083 1275.64 888.734 1275.23 888.552C1274.82 888.369 1274.35 888.342 1273.82 888.47L1275.13 891.095C1275.99 890.801 1276.72 890.723 1277.33 890.863C1277.93 891.019 1278.39 891.42 1278.71 892.064L1278.76 892.16C1278.93 892.504 1279.02 892.837 1279.02 893.159C1279.01 893.497 1278.94 893.813 1278.81 894.108C1278.68 894.414 1278.49 894.696 1278.24 894.953C1278 895.221 1277.72 895.455 1277.41 895.653L1277.9 896.652L1276.75 897.23L1276.23 896.2ZM1271.81 891.045C1271.99 891.42 1272.25 891.641 1272.58 891.705C1272.91 891.77 1273.35 891.717 1273.91 891.545L1272.64 889.001C1272.2 889.285 1271.91 889.604 1271.77 889.958C1271.61 890.317 1271.62 890.68 1271.81 891.045ZM1277.51 892.787C1277.35 892.487 1277.15 892.283 1276.88 892.175C1276.6 892.084 1276.21 892.11 1275.71 892.255L1276.83 894.493C1277.14 894.268 1277.38 894.006 1277.52 893.705C1277.67 893.405 1277.66 893.099 1277.51 892.787Z" fill="#7BF75C"/>
<path d="M436.617 1325.65C437.043 1325.67 437.433 1325.75 437.789 1325.89C438.154 1326.01 438.472 1326.19 438.74 1326.41C439.009 1326.63 439.228 1326.89 439.397 1327.18C439.564 1327.46 439.669 1327.77 439.709 1328.1L439.749 1328.42L438.391 1328.59L438.364 1328.38C438.316 1327.98 438.145 1327.67 437.849 1327.42C437.565 1327.18 437.209 1327.03 436.779 1326.97L437.091 1329.53C438.094 1329.53 438.878 1329.71 439.443 1330.08C440.018 1330.43 440.35 1330.97 440.441 1331.71L440.454 1331.82C440.551 1332.62 440.35 1333.3 439.85 1333.85C439.36 1334.4 438.66 1334.75 437.75 1334.92L437.884 1336.01L436.597 1336.17L436.46 1335.05C435.925 1335.03 435.455 1334.94 435.049 1334.78C434.654 1334.61 434.314 1334.4 434.029 1334.15C433.754 1333.88 433.537 1333.58 433.377 1333.27C433.215 1332.93 433.114 1332.6 433.071 1332.25L433.019 1331.82L434.377 1331.66L434.403 1331.87C434.473 1332.44 434.672 1332.88 435 1333.19C435.328 1333.5 435.762 1333.69 436.3 1333.74L435.944 1330.83C435.036 1330.82 434.32 1330.65 433.796 1330.31C433.282 1329.96 432.981 1329.43 432.894 1328.72L432.88 1328.61C432.834 1328.23 432.865 1327.89 432.973 1327.58C433.091 1327.27 433.263 1326.99 433.488 1326.76C433.712 1326.51 433.984 1326.31 434.303 1326.15C434.62 1325.98 434.961 1325.85 435.326 1325.77L435.191 1324.67L436.477 1324.51L436.617 1325.65ZM439.06 1331.99C439.009 1331.57 438.84 1331.28 438.553 1331.11C438.267 1330.94 437.832 1330.84 437.248 1330.82L437.593 1333.64C438.098 1333.52 438.478 1333.31 438.734 1333.03C439.001 1332.74 439.11 1332.4 439.06 1331.99ZM434.274 1328.44C434.315 1328.77 434.444 1329.04 434.66 1329.23C434.888 1329.41 435.263 1329.51 435.787 1329.54L435.484 1327.06C435.11 1327.17 434.804 1327.34 434.567 1327.57C434.329 1327.81 434.232 1328.1 434.274 1328.44Z" fill="#7BF75C"/>
<path d="M325.608 1244.78C325.987 1244.59 326.364 1244.46 326.741 1244.4C327.12 1244.33 327.481 1244.32 327.825 1244.37C328.168 1244.43 328.486 1244.54 328.78 1244.71C329.066 1244.87 329.31 1245.08 329.513 1245.35L329.708 1245.61L328.617 1246.44L328.487 1246.26C328.248 1245.95 327.94 1245.76 327.563 1245.7C327.196 1245.63 326.812 1245.68 326.412 1245.85L327.964 1247.9C328.831 1247.4 329.6 1247.16 330.272 1247.19C330.947 1247.21 331.508 1247.51 331.957 1248.11L332.022 1248.19C332.507 1248.84 332.673 1249.52 332.519 1250.26C332.368 1250.97 331.942 1251.63 331.241 1252.24L331.904 1253.11L330.87 1253.89L330.186 1252.99C329.714 1253.24 329.263 1253.4 328.834 1253.47C328.407 1253.52 328.006 1253.51 327.631 1253.43C327.259 1253.34 326.924 1253.19 326.625 1253C326.32 1252.79 326.062 1252.55 325.852 1252.27L325.592 1251.93L326.683 1251.1L326.813 1251.27C327.161 1251.73 327.554 1252.02 327.994 1252.12C328.433 1252.22 328.9 1252.16 329.394 1251.94L327.624 1249.6C326.834 1250.05 326.128 1250.26 325.506 1250.23C324.887 1250.19 324.36 1249.88 323.926 1249.3L323.861 1249.22C323.629 1248.91 323.484 1248.6 323.425 1248.28C323.369 1247.95 323.38 1247.63 323.458 1247.31C323.529 1246.99 323.662 1246.68 323.858 1246.38C324.046 1246.07 324.278 1245.79 324.553 1245.54L323.88 1244.65L324.914 1243.86L325.608 1244.78ZM330.902 1249.04C330.649 1248.71 330.355 1248.54 330.022 1248.53C329.688 1248.53 329.263 1248.66 328.745 1248.93L330.46 1251.2C330.835 1250.84 331.062 1250.48 331.14 1250.1C331.227 1249.72 331.148 1249.37 330.902 1249.04ZM324.981 1248.37C325.184 1248.64 325.427 1248.8 325.71 1248.86C325.996 1248.9 326.373 1248.8 326.843 1248.57L325.334 1246.57C325.064 1246.85 324.885 1247.15 324.798 1247.47C324.71 1247.79 324.771 1248.09 324.981 1248.37Z" fill="#7BF75C"/>
<path d="M486.68 1488.18C487.087 1488.06 487.482 1488 487.863 1488.01C488.249 1488 488.606 1488.06 488.934 1488.18C489.261 1488.29 489.554 1488.46 489.812 1488.68C490.065 1488.89 490.267 1489.14 490.418 1489.44L490.564 1489.73L489.342 1490.35L489.245 1490.16C489.067 1489.8 488.798 1489.56 488.438 1489.43C488.089 1489.3 487.702 1489.28 487.278 1489.37L488.435 1491.67C489.379 1491.33 490.178 1491.24 490.834 1491.39C491.494 1491.53 491.991 1491.93 492.326 1492.59L492.374 1492.69C492.736 1493.41 492.775 1494.12 492.492 1494.81C492.215 1495.49 491.677 1496.06 490.879 1496.53L491.372 1497.51L490.214 1498.09L489.705 1497.08C489.195 1497.24 488.723 1497.32 488.289 1497.31C487.859 1497.28 487.467 1497.2 487.113 1497.05C486.763 1496.89 486.46 1496.69 486.201 1496.44C485.938 1496.19 485.728 1495.9 485.571 1495.59L485.377 1495.2L486.599 1494.59L486.696 1494.78C486.955 1495.3 487.292 1495.65 487.705 1495.83C488.119 1496.01 488.589 1496.03 489.114 1495.9L487.795 1493.28C486.938 1493.58 486.205 1493.66 485.598 1493.52C484.997 1493.37 484.534 1492.97 484.211 1492.33L484.162 1492.23C483.99 1491.89 483.903 1491.55 483.902 1491.23C483.907 1490.89 483.976 1490.58 484.109 1490.28C484.237 1489.97 484.424 1489.69 484.67 1489.43C484.911 1489.17 485.19 1488.93 485.506 1488.73L485.004 1487.74L486.162 1487.15L486.68 1488.18ZM491.12 1493.32C490.931 1492.95 490.673 1492.73 490.346 1492.66C490.018 1492.6 489.576 1492.66 489.018 1492.83L490.296 1495.37C490.73 1495.08 491.019 1494.76 491.163 1494.41C491.318 1494.05 491.303 1493.69 491.12 1493.32ZM485.416 1491.6C485.567 1491.9 485.777 1492.1 486.046 1492.21C486.32 1492.3 486.709 1492.27 487.213 1492.12L486.088 1489.89C485.772 1490.12 485.542 1490.38 485.398 1490.68C485.254 1490.98 485.26 1491.29 485.416 1491.6Z" fill="#7BF75C"/>
<path d="M683.941 1123.66C683.874 1123.24 683.873 1122.84 683.936 1122.46C683.984 1122.08 684.089 1121.74 684.251 1121.43C684.413 1121.12 684.62 1120.85 684.874 1120.63C685.116 1120.41 685.396 1120.24 685.714 1120.14L686.021 1120.03L686.459 1121.33L686.254 1121.4C685.879 1121.52 685.603 1121.76 685.426 1122.09C685.245 1122.42 685.17 1122.8 685.203 1123.23L687.641 1122.41C687.436 1121.43 687.456 1120.62 687.7 1120C687.929 1119.36 688.396 1118.93 689.101 1118.69L689.203 1118.65C689.965 1118.4 690.669 1118.46 691.316 1118.83C691.947 1119.2 692.439 1119.82 692.792 1120.67L693.832 1120.32L694.247 1121.55L693.172 1121.91C693.261 1122.44 693.271 1122.92 693.2 1123.35C693.115 1123.77 692.976 1124.14 692.784 1124.47C692.576 1124.8 692.332 1125.07 692.052 1125.29C691.761 1125.52 691.451 1125.68 691.121 1125.8L690.712 1125.93L690.274 1124.64L690.479 1124.57C691.024 1124.38 691.416 1124.1 691.654 1123.72C691.891 1123.33 691.982 1122.87 691.927 1122.33L689.147 1123.27C689.322 1124.16 689.298 1124.9 689.076 1125.48C688.839 1126.05 688.38 1126.45 687.698 1126.68L687.595 1126.72C687.231 1126.84 686.89 1126.88 686.571 1126.84C686.237 1126.79 685.933 1126.67 685.659 1126.5C685.374 1126.33 685.121 1126.1 684.899 1125.82C684.667 1125.55 684.474 1125.24 684.321 1124.9L683.264 1125.26L682.849 1124.03L683.941 1123.66ZM689.653 1119.98C689.255 1120.12 689.001 1120.34 688.892 1120.66C688.784 1120.97 688.776 1121.42 688.869 1122L691.564 1121.09C691.342 1120.62 691.065 1120.29 690.735 1120.09C690.4 1119.89 690.039 1119.85 689.653 1119.98ZM687.146 1125.39C687.465 1125.28 687.695 1125.1 687.839 1124.85C687.967 1124.59 687.994 1124.2 687.919 1123.68L685.549 1124.48C685.729 1124.83 685.957 1125.09 686.235 1125.28C686.513 1125.46 686.816 1125.5 687.146 1125.39Z" fill="#7BF75C"/>
<path d="M202.882 1196.29C203.202 1196.01 203.538 1195.8 203.889 1195.65C204.239 1195.49 204.587 1195.39 204.934 1195.36C205.281 1195.33 205.617 1195.37 205.942 1195.46C206.259 1195.55 206.547 1195.7 206.808 1195.91L207.06 1196.11L206.199 1197.17L206.031 1197.04C205.724 1196.79 205.379 1196.68 204.999 1196.71C204.626 1196.73 204.265 1196.87 203.917 1197.13L205.917 1198.75C206.637 1198.05 207.328 1197.64 207.988 1197.51C208.647 1197.37 209.265 1197.53 209.843 1197.99L209.927 1198.06C210.552 1198.57 210.878 1199.2 210.906 1199.94C210.931 1200.67 210.677 1201.42 210.142 1202.17L210.995 1202.86L210.18 1203.87L209.298 1203.16C208.901 1203.52 208.502 1203.78 208.102 1203.95C207.7 1204.1 207.308 1204.19 206.925 1204.2C206.541 1204.2 206.181 1204.14 205.844 1204.02C205.498 1203.89 205.19 1203.72 204.919 1203.5L204.584 1203.23L205.445 1202.17L205.612 1202.3C206.06 1202.67 206.51 1202.85 206.961 1202.84C207.413 1202.84 207.852 1202.67 208.277 1202.33L205.997 1200.48C205.337 1201.11 204.703 1201.48 204.093 1201.61C203.481 1201.71 202.896 1201.54 202.336 1201.09L202.252 1201.02C201.954 1200.78 201.738 1200.51 201.605 1200.22C201.47 1199.91 201.402 1199.59 201.402 1199.27C201.393 1198.93 201.447 1198.6 201.566 1198.26C201.675 1197.92 201.832 1197.59 202.038 1197.28L201.171 1196.58L201.986 1195.57L202.882 1196.29ZM209.044 1199.15C208.717 1198.89 208.392 1198.8 208.067 1198.87C207.742 1198.95 207.362 1199.18 206.925 1199.57L209.135 1201.36C209.413 1200.92 209.545 1200.51 209.53 1200.13C209.523 1199.73 209.361 1199.41 209.044 1199.15ZM203.136 1199.93C203.397 1200.14 203.672 1200.24 203.96 1200.23C204.247 1200.2 204.591 1200.01 204.99 1199.67L203.045 1198.09C202.85 1198.43 202.749 1198.77 202.741 1199.1C202.734 1199.43 202.865 1199.71 203.136 1199.93Z" fill="#7BF75C"/>
<path d="M447.586 1069.03C447.601 1069.46 447.555 1069.85 447.447 1070.22C447.354 1070.59 447.208 1070.93 447.01 1071.21C446.812 1071.5 446.574 1071.74 446.296 1071.93C446.029 1072.12 445.731 1072.25 445.402 1072.32L445.085 1072.39L444.806 1071.05L445.017 1071C445.405 1070.92 445.707 1070.72 445.924 1070.41C446.142 1070.11 446.262 1069.74 446.282 1069.3L443.762 1069.83C443.848 1070.83 443.732 1071.63 443.414 1072.22C443.11 1072.82 442.595 1073.2 441.866 1073.35L441.76 1073.37C440.973 1073.54 440.281 1073.39 439.685 1072.94C439.102 1072.5 438.687 1071.83 438.44 1070.94L437.365 1071.16L437.101 1069.89L438.211 1069.66C438.186 1069.13 438.234 1068.65 438.355 1068.23C438.491 1067.83 438.674 1067.47 438.904 1067.16C439.149 1066.87 439.424 1066.63 439.728 1066.44C440.044 1066.25 440.373 1066.12 440.713 1066.05L441.136 1065.96L441.415 1067.3L441.204 1067.35C440.64 1067.46 440.217 1067.7 439.935 1068.05C439.653 1068.41 439.507 1068.85 439.498 1069.39L442.37 1068.8C442.304 1067.89 442.416 1067.16 442.705 1066.61C443.009 1066.07 443.514 1065.73 444.219 1065.58L444.324 1065.56C444.7 1065.48 445.044 1065.48 445.355 1065.56C445.681 1065.65 445.969 1065.8 446.22 1066.01C446.483 1066.21 446.707 1066.46 446.893 1066.77C447.091 1067.07 447.246 1067.4 447.357 1067.76L448.449 1067.53L448.714 1068.8L447.586 1069.03ZM441.474 1072C441.885 1071.91 442.164 1071.72 442.31 1071.42C442.455 1071.12 442.517 1070.68 442.493 1070.09L439.709 1070.67C439.873 1071.17 440.108 1071.53 440.413 1071.76C440.721 1072 441.075 1072.08 441.474 1072ZM444.611 1066.93C444.282 1067 444.031 1067.15 443.859 1067.38C443.701 1067.62 443.627 1068.01 443.639 1068.53L446.088 1068.02C445.951 1067.66 445.756 1067.37 445.502 1067.15C445.249 1066.93 444.951 1066.86 444.611 1066.93Z" fill="#7BF75C"/>
<path d="M782.193 1720.5C782.355 1720.9 782.45 1721.28 782.476 1721.66C782.519 1722.05 782.498 1722.41 782.412 1722.75C782.327 1723.08 782.187 1723.39 781.993 1723.67C781.809 1723.94 781.575 1724.16 781.291 1724.34L781.016 1724.52L780.288 1723.36L780.471 1723.24C780.806 1723.03 781.021 1722.74 781.114 1722.37C781.213 1722.01 781.197 1721.62 781.065 1721.21L778.886 1722.58C779.314 1723.49 779.483 1724.27 779.392 1724.94C779.317 1725.61 778.965 1726.15 778.335 1726.54L778.244 1726.6C777.563 1727.03 776.865 1727.13 776.148 1726.92C775.448 1726.71 774.826 1726.22 774.284 1725.47L773.354 1726.06L772.664 1724.96L773.624 1724.36C773.415 1723.87 773.294 1723.4 773.262 1722.97C773.247 1722.54 773.294 1722.14 773.404 1721.77C773.53 1721.41 773.704 1721.09 773.924 1720.81C774.155 1720.52 774.418 1720.29 774.712 1720.1L775.078 1719.87L775.806 1721.03L775.623 1721.15C775.136 1721.45 774.821 1721.82 774.68 1722.25C774.538 1722.68 774.557 1723.15 774.737 1723.66L777.221 1722.1C776.843 1721.27 776.695 1720.55 776.774 1719.93C776.871 1719.32 777.224 1718.82 777.833 1718.44L777.925 1718.38C778.25 1718.18 778.572 1718.06 778.893 1718.03C779.23 1718 779.552 1718.04 779.859 1718.14C780.176 1718.24 780.474 1718.4 780.755 1718.62C781.045 1718.83 781.305 1719.09 781.533 1719.39L782.478 1718.79L783.168 1719.89L782.193 1720.5ZM777.497 1725.41C777.852 1725.19 778.046 1724.91 778.078 1724.58C778.11 1724.24 778.014 1723.81 777.789 1723.27L775.381 1724.78C775.706 1725.19 776.052 1725.45 776.419 1725.56C776.792 1725.68 777.151 1725.63 777.497 1725.41ZM778.672 1719.57C778.387 1719.75 778.205 1719.98 778.124 1720.25C778.06 1720.53 778.125 1720.92 778.318 1721.41L780.436 1720.08C780.181 1719.78 779.897 1719.58 779.584 1719.46C779.27 1719.35 778.966 1719.38 778.672 1719.57Z" fill="#7BF75C"/>
<path d="M808.125 1585.63C808.463 1585.89 808.739 1586.18 808.953 1586.49C809.183 1586.8 809.345 1587.13 809.441 1587.46C809.536 1587.8 809.569 1588.13 809.541 1588.47C809.518 1588.8 809.429 1589.11 809.272 1589.41L809.122 1589.69L807.911 1589.06L808.011 1588.87C808.195 1588.52 808.235 1588.16 808.13 1587.79C808.035 1587.43 807.827 1587.1 807.505 1586.81L806.308 1589.09C807.134 1589.66 807.674 1590.25 807.93 1590.88C808.202 1591.49 808.165 1592.13 807.819 1592.79L807.769 1592.89C807.394 1593.6 806.843 1594.04 806.115 1594.21C805.403 1594.38 804.624 1594.28 803.779 1593.9L803.268 1594.87L802.12 1594.27L802.648 1593.27C802.22 1592.95 801.883 1592.61 801.638 1592.25C801.409 1591.88 801.25 1591.51 801.161 1591.14C801.089 1590.77 801.077 1590.4 801.127 1590.05C801.183 1589.68 801.292 1589.35 801.454 1589.04L801.655 1588.66L802.866 1589.29L802.765 1589.48C802.497 1589.99 802.41 1590.47 802.503 1590.91C802.596 1591.35 802.848 1591.75 803.259 1592.1L804.625 1589.51C803.884 1588.98 803.393 1588.43 803.152 1587.86C802.928 1587.28 802.983 1586.67 803.318 1586.03L803.368 1585.94C803.547 1585.6 803.767 1585.33 804.029 1585.15C804.306 1584.95 804.604 1584.82 804.922 1584.76C805.246 1584.69 805.584 1584.68 805.937 1584.73C806.296 1584.76 806.649 1584.86 806.995 1585L807.514 1584.01L808.661 1584.61L808.125 1585.63ZM806.526 1592.23C806.721 1591.86 806.749 1591.52 806.611 1591.22C806.472 1590.92 806.17 1590.59 805.705 1590.24L804.382 1592.75C804.866 1592.94 805.295 1592.99 805.667 1592.9C806.05 1592.82 806.336 1592.59 806.526 1592.23ZM804.611 1586.59C804.455 1586.89 804.412 1587.18 804.481 1587.46C804.567 1587.73 804.815 1588.03 805.228 1588.36L806.392 1586.14C806.024 1586.02 805.676 1585.98 805.347 1586.04C805.018 1586.1 804.773 1586.28 804.611 1586.59Z" fill="#7BF75C"/>
<path d="M656.424 1834.98C656.71 1835.29 656.93 1835.63 657.084 1835.97C657.254 1836.32 657.355 1836.67 657.389 1837.01C657.422 1837.36 657.395 1837.7 657.306 1838.02C657.225 1838.34 657.08 1838.63 656.873 1838.9L656.673 1839.15L655.597 1838.31L655.73 1838.14C655.974 1837.83 656.078 1837.48 656.04 1837.1C656.012 1836.73 655.866 1836.37 655.602 1836.03L654.014 1838.05C654.724 1838.76 655.148 1839.44 655.288 1840.1C655.444 1840.76 655.293 1841.38 654.834 1841.96L654.767 1842.05C654.271 1842.68 653.649 1843.02 652.902 1843.06C652.171 1843.09 651.424 1842.85 650.66 1842.33L649.982 1843.19L648.962 1842.39L649.662 1841.5C649.299 1841.11 649.029 1840.71 648.852 1840.32C648.693 1839.92 648.603 1839.53 648.582 1839.14C648.578 1838.76 648.633 1838.4 648.746 1838.06C648.866 1837.71 649.034 1837.4 649.249 1837.13L649.515 1836.79L650.592 1837.63L650.458 1837.8C650.103 1838.25 649.931 1838.71 649.943 1839.16C649.955 1839.61 650.132 1840.05 650.473 1840.47L652.283 1838.16C651.649 1837.51 651.266 1836.88 651.132 1836.27C651.016 1835.66 651.18 1835.07 651.624 1834.51L651.69 1834.42C651.927 1834.12 652.191 1833.9 652.482 1833.76C652.79 1833.62 653.106 1833.55 653.431 1833.54C653.762 1833.53 654.097 1833.58 654.436 1833.69C654.781 1833.8 655.112 1833.95 655.427 1834.15L656.115 1833.27L657.135 1834.07L656.424 1834.98ZM653.662 1841.18C653.922 1840.85 654.01 1840.53 653.928 1840.2C653.846 1839.88 653.608 1839.5 653.214 1839.07L651.46 1841.31C651.903 1841.58 652.315 1841.71 652.697 1841.68C653.089 1841.67 653.411 1841.5 653.662 1841.18ZM652.795 1835.29C652.588 1835.55 652.493 1835.83 652.511 1836.12C652.546 1836.4 652.736 1836.74 653.083 1837.14L654.627 1835.17C654.288 1834.98 653.951 1834.88 653.618 1834.88C653.284 1834.88 653.01 1835.01 652.795 1835.29Z" fill="#7BF75C"/>
<path d="M1070.24 1858.34C1070.59 1858.1 1070.95 1857.93 1071.32 1857.83C1071.69 1857.71 1072.04 1857.65 1072.39 1857.67C1072.74 1857.69 1073.07 1857.76 1073.38 1857.89C1073.68 1858.02 1073.95 1858.2 1074.18 1858.44L1074.41 1858.68L1073.42 1859.63L1073.27 1859.47C1073 1859.18 1072.67 1859.03 1072.29 1859.02C1071.91 1858.99 1071.54 1859.09 1071.16 1859.3L1072.94 1861.16C1073.75 1860.55 1074.48 1860.23 1075.15 1860.18C1075.83 1860.12 1076.42 1860.36 1076.93 1860.89L1077.01 1860.97C1077.57 1861.55 1077.81 1862.21 1077.75 1862.96C1077.68 1863.69 1077.33 1864.39 1076.71 1865.08L1077.47 1865.87L1076.54 1866.77L1075.75 1865.95C1075.31 1866.25 1074.88 1866.47 1074.46 1866.58C1074.05 1866.69 1073.65 1866.72 1073.27 1866.69C1072.88 1866.64 1072.53 1866.53 1072.22 1866.37C1071.89 1866.21 1071.6 1866 1071.36 1865.75L1071.06 1865.43L1072.05 1864.49L1072.2 1864.64C1072.6 1865.06 1073.02 1865.29 1073.47 1865.34C1073.92 1865.39 1074.38 1865.28 1074.84 1865L1072.81 1862.88C1072.08 1863.42 1071.4 1863.71 1070.78 1863.76C1070.16 1863.79 1069.6 1863.55 1069.1 1863.03L1069.03 1862.95C1068.76 1862.67 1068.58 1862.38 1068.48 1862.07C1068.39 1861.75 1068.36 1861.42 1068.4 1861.1C1068.43 1860.77 1068.53 1860.45 1068.69 1860.13C1068.84 1859.8 1069.04 1859.49 1069.28 1859.21L1068.51 1858.41L1069.44 1857.51L1070.24 1858.34ZM1076 1861.94C1075.71 1861.64 1075.39 1861.51 1075.06 1861.54C1074.73 1861.58 1074.32 1861.76 1073.84 1862.09L1075.81 1864.14C1076.14 1863.74 1076.32 1863.35 1076.36 1862.97C1076.4 1862.58 1076.28 1862.24 1076 1861.94ZM1070.04 1861.98C1070.27 1862.22 1070.53 1862.35 1070.82 1862.37C1071.11 1862.38 1071.47 1862.24 1071.91 1861.95L1070.18 1860.15C1069.94 1860.45 1069.8 1860.77 1069.75 1861.1C1069.7 1861.43 1069.8 1861.73 1070.04 1861.98Z" fill="#7BF75C"/>
<path d="M799.771 1453.94C800.161 1454.11 800.498 1454.32 800.782 1454.58C801.079 1454.82 801.315 1455.1 801.488 1455.4C801.661 1455.7 801.774 1456.02 801.828 1456.35C801.884 1456.68 801.872 1457 801.792 1457.33L801.715 1457.64L800.387 1457.31L800.438 1457.1C800.533 1456.72 800.485 1456.36 800.294 1456.03C800.115 1455.7 799.835 1455.44 799.453 1455.23L798.838 1457.73C799.777 1458.09 800.445 1458.53 800.843 1459.08C801.256 1459.61 801.373 1460.24 801.196 1460.96L801.17 1461.07C800.978 1461.85 800.549 1462.41 799.884 1462.75C799.234 1463.09 798.453 1463.17 797.541 1463.01L797.279 1464.08L796.02 1463.77L796.291 1462.67C795.798 1462.46 795.39 1462.21 795.066 1461.92C794.756 1461.62 794.513 1461.3 794.337 1460.96C794.176 1460.61 794.077 1460.26 794.04 1459.91C794.007 1459.54 794.032 1459.19 794.115 1458.85L794.218 1458.43L795.546 1458.76L795.495 1458.97C795.357 1459.53 795.387 1460.01 795.583 1460.42C795.78 1460.82 796.12 1461.15 796.605 1461.39L797.305 1458.54C796.459 1458.21 795.851 1457.79 795.479 1457.29C795.122 1456.79 795.03 1456.18 795.202 1455.48L795.227 1455.38C795.319 1455.01 795.469 1454.7 795.678 1454.45C795.901 1454.2 796.159 1454 796.452 1453.86C796.749 1453.71 797.074 1453.62 797.429 1453.58C797.787 1453.54 798.151 1453.54 798.521 1453.59L798.787 1452.51L800.046 1452.82L799.771 1453.94ZM799.806 1460.73C799.907 1460.32 799.853 1459.99 799.645 1459.73C799.438 1459.47 799.065 1459.22 798.529 1458.99L797.85 1461.75C798.366 1461.82 798.793 1461.76 799.133 1461.58C799.485 1461.41 799.709 1461.13 799.806 1460.73ZM796.591 1455.71C796.511 1456.04 796.538 1456.33 796.673 1456.59C796.822 1456.83 797.136 1457.07 797.614 1457.28L798.211 1454.85C797.824 1454.82 797.478 1454.87 797.173 1455C796.868 1455.14 796.674 1455.38 796.591 1455.71Z" fill="#7BF75C"/>
<path d="M1019.08 1621.21C1018.7 1621.4 1018.32 1621.53 1017.94 1621.59C1017.57 1621.66 1017.2 1621.67 1016.86 1621.62C1016.52 1621.56 1016.2 1621.45 1015.91 1621.28C1015.62 1621.12 1015.38 1620.9 1015.17 1620.63L1014.98 1620.37L1016.07 1619.55L1016.2 1619.72C1016.44 1620.04 1016.75 1620.23 1017.13 1620.29C1017.49 1620.36 1017.88 1620.31 1018.28 1620.15L1016.73 1618.09C1015.86 1618.59 1015.09 1618.83 1014.42 1618.79C1013.75 1618.77 1013.18 1618.47 1012.74 1617.87L1012.67 1617.79C1012.19 1617.14 1012.02 1616.46 1012.18 1615.72C1012.33 1615.01 1012.76 1614.35 1013.46 1613.74L1012.8 1612.87L1013.84 1612.09L1014.52 1612.99C1014.99 1612.74 1015.44 1612.58 1015.87 1612.52C1016.3 1612.47 1016.7 1612.48 1017.07 1612.56C1017.45 1612.65 1017.78 1612.8 1018.08 1613C1018.38 1613.2 1018.64 1613.44 1018.85 1613.72L1019.11 1614.07L1018.02 1614.89L1017.89 1614.72C1017.54 1614.26 1017.15 1613.97 1016.71 1613.87C1016.27 1613.76 1015.8 1613.82 1015.31 1614.04L1017.07 1616.39C1017.86 1615.94 1018.57 1615.73 1019.19 1615.76C1019.81 1615.81 1020.34 1616.12 1020.77 1616.69L1020.84 1616.78C1021.07 1617.09 1021.21 1617.4 1021.27 1617.71C1021.32 1618.05 1021.31 1618.37 1021.23 1618.69C1021.16 1619.01 1021.03 1619.32 1020.83 1619.62C1020.64 1619.93 1020.41 1620.21 1020.14 1620.46L1020.81 1621.35L1019.77 1622.13L1019.08 1621.21ZM1013.79 1616.94C1014.05 1617.28 1014.34 1617.45 1014.67 1617.45C1015.01 1617.46 1015.43 1617.32 1015.95 1617.05L1014.24 1614.78C1013.86 1615.14 1013.64 1615.5 1013.56 1615.88C1013.47 1616.26 1013.55 1616.61 1013.79 1616.94ZM1019.71 1617.62C1019.51 1617.35 1019.27 1617.19 1018.99 1617.13C1018.7 1617.09 1018.32 1617.19 1017.85 1617.42L1019.36 1619.42C1019.63 1619.14 1019.81 1618.84 1019.89 1618.52C1019.98 1618.2 1019.92 1617.9 1019.71 1617.62Z" fill="#7BF75C"/>
<path d="M1367.6 1655.8C1368.01 1655.91 1368.37 1656.08 1368.69 1656.29C1369.02 1656.5 1369.29 1656.74 1369.5 1657.01C1369.71 1657.29 1369.86 1657.59 1369.96 1657.92C1370.06 1658.23 1370.09 1658.55 1370.06 1658.88L1370.02 1659.21L1368.66 1659.06L1368.69 1658.85C1368.73 1658.45 1368.63 1658.1 1368.4 1657.8C1368.18 1657.5 1367.86 1657.27 1367.46 1657.12L1367.18 1659.68C1368.16 1659.91 1368.88 1660.26 1369.35 1660.75C1369.83 1661.22 1370.03 1661.83 1369.95 1662.57L1369.94 1662.67C1369.85 1663.47 1369.51 1664.09 1368.89 1664.52C1368.29 1664.94 1367.53 1665.13 1366.6 1665.09L1366.49 1666.18L1365.2 1666.04L1365.32 1664.91C1364.8 1664.77 1364.37 1664.58 1364.01 1664.34C1363.66 1664.08 1363.38 1663.8 1363.16 1663.49C1362.95 1663.16 1362.8 1662.83 1362.72 1662.48C1362.64 1662.12 1362.62 1661.77 1362.65 1661.42L1362.7 1660.99L1364.06 1661.14L1364.04 1661.35C1363.97 1661.93 1364.07 1662.4 1364.32 1662.78C1364.57 1663.15 1364.95 1663.43 1365.46 1663.61L1365.77 1660.69C1364.89 1660.47 1364.23 1660.14 1363.8 1659.7C1363.37 1659.24 1363.2 1658.66 1363.28 1657.94L1363.29 1657.83C1363.33 1657.45 1363.44 1657.13 1363.61 1656.85C1363.8 1656.57 1364.03 1656.34 1364.3 1656.17C1364.58 1655.98 1364.89 1655.84 1365.23 1655.76C1365.58 1655.67 1365.94 1655.62 1366.32 1655.62L1366.43 1654.51L1367.72 1654.65L1367.6 1655.8ZM1368.54 1662.52C1368.59 1662.11 1368.49 1661.78 1368.25 1661.55C1368.01 1661.32 1367.61 1661.13 1367.05 1660.97L1366.74 1663.8C1367.26 1663.79 1367.68 1663.68 1367.99 1663.46C1368.32 1663.24 1368.5 1662.93 1368.54 1662.52ZM1364.69 1657.98C1364.65 1658.32 1364.72 1658.6 1364.88 1658.84C1365.07 1659.06 1365.41 1659.25 1365.91 1659.4L1366.18 1656.91C1365.79 1656.93 1365.45 1657.03 1365.17 1657.2C1364.88 1657.38 1364.72 1657.64 1364.69 1657.98Z" fill="#7BF75C"/>
<path d="M1277.78 1551.9C1278.2 1551.79 1278.59 1551.75 1278.97 1551.78C1279.36 1551.79 1279.71 1551.86 1280.04 1552C1280.36 1552.13 1280.64 1552.31 1280.89 1552.54C1281.13 1552.76 1281.32 1553.03 1281.46 1553.33L1281.59 1553.63L1280.34 1554.19L1280.25 1553.99C1280.09 1553.63 1279.83 1553.37 1279.48 1553.23C1279.14 1553.08 1278.75 1553.04 1278.33 1553.11L1279.37 1555.46C1280.33 1555.17 1281.13 1555.11 1281.78 1555.3C1282.43 1555.47 1282.91 1555.89 1283.21 1556.57L1283.26 1556.67C1283.59 1557.4 1283.59 1558.11 1283.28 1558.79C1282.97 1559.45 1282.4 1560 1281.58 1560.43L1282.03 1561.43L1280.85 1561.96L1280.38 1560.92C1279.87 1561.06 1279.39 1561.12 1278.96 1561.09C1278.53 1561.04 1278.14 1560.94 1277.8 1560.78C1277.45 1560.6 1277.16 1560.38 1276.91 1560.12C1276.66 1559.86 1276.47 1559.56 1276.33 1559.24L1276.15 1558.85L1277.4 1558.29L1277.49 1558.49C1277.72 1559.02 1278.04 1559.38 1278.45 1559.58C1278.85 1559.78 1279.32 1559.83 1279.85 1559.72L1278.66 1557.04C1277.79 1557.3 1277.05 1557.35 1276.45 1557.18C1275.86 1557 1275.41 1556.58 1275.12 1555.92L1275.08 1555.82C1274.92 1555.47 1274.85 1555.13 1274.86 1554.81C1274.89 1554.47 1274.97 1554.16 1275.12 1553.87C1275.26 1553.57 1275.46 1553.3 1275.72 1553.05C1275.97 1552.79 1276.26 1552.57 1276.58 1552.39L1276.13 1551.37L1277.31 1550.84L1277.78 1551.9ZM1281.98 1557.24C1281.8 1556.86 1281.56 1556.63 1281.23 1556.55C1280.91 1556.47 1280.46 1556.5 1279.9 1556.65L1281.06 1559.25C1281.5 1558.98 1281.81 1558.68 1281.97 1558.33C1282.14 1557.98 1282.14 1557.61 1281.98 1557.24ZM1276.36 1555.25C1276.5 1555.56 1276.7 1555.77 1276.96 1555.89C1277.23 1555.99 1277.62 1555.98 1278.13 1555.86L1277.11 1553.57C1276.79 1553.78 1276.54 1554.04 1276.38 1554.33C1276.23 1554.62 1276.22 1554.93 1276.36 1555.25Z" fill="#7BF75C"/>
<path d="M1379.56 1825.44C1379.99 1825.41 1380.39 1825.45 1380.75 1825.54C1381.13 1825.62 1381.47 1825.76 1381.76 1825.95C1382.05 1826.13 1382.3 1826.37 1382.5 1826.64C1382.7 1826.9 1382.84 1827.19 1382.92 1827.52L1383 1827.83L1381.67 1828.15L1381.61 1827.94C1381.52 1827.56 1381.31 1827.26 1380.99 1827.06C1380.68 1826.85 1380.31 1826.74 1379.88 1826.74L1380.48 1829.24C1381.48 1829.12 1382.28 1829.21 1382.88 1829.51C1383.49 1829.79 1383.89 1830.3 1384.06 1831.02L1384.09 1831.12C1384.28 1831.9 1384.16 1832.6 1383.72 1833.21C1383.3 1833.81 1382.65 1834.24 1381.76 1834.52L1382.02 1835.59L1380.76 1835.89L1380.5 1834.79C1379.96 1834.83 1379.49 1834.8 1379.06 1834.69C1378.65 1834.57 1378.29 1834.4 1377.98 1834.18C1377.67 1833.94 1377.42 1833.68 1377.23 1833.38C1377.03 1833.07 1376.89 1832.75 1376.81 1832.41L1376.7 1831.99L1378.03 1831.66L1378.09 1831.87C1378.22 1832.43 1378.47 1832.85 1378.83 1833.12C1379.19 1833.39 1379.64 1833.52 1380.19 1833.51L1379.5 1830.66C1378.59 1830.76 1377.86 1830.67 1377.3 1830.4C1376.75 1830.11 1376.39 1829.62 1376.22 1828.92L1376.19 1828.81C1376.1 1828.44 1376.1 1828.1 1376.17 1827.78C1376.25 1827.46 1376.39 1827.16 1376.58 1826.9C1376.78 1826.64 1377.02 1826.4 1377.32 1826.21C1377.62 1826 1377.94 1825.83 1378.3 1825.71L1378.03 1824.63L1379.29 1824.32L1379.56 1825.44ZM1382.72 1831.45C1382.63 1831.05 1382.42 1830.77 1382.12 1830.64C1381.81 1830.5 1381.37 1830.45 1380.79 1830.5L1381.46 1833.26C1381.95 1833.08 1382.3 1832.84 1382.52 1832.52C1382.75 1832.21 1382.82 1831.85 1382.72 1831.45ZM1377.56 1828.48C1377.64 1828.81 1377.8 1829.06 1378.03 1829.22C1378.28 1829.37 1378.67 1829.43 1379.19 1829.4L1378.6 1826.97C1378.24 1827.12 1377.96 1827.32 1377.75 1827.59C1377.54 1827.85 1377.48 1828.14 1377.56 1828.48Z" fill="#7BF75C"/>
<path d="M1169.22 1476.88C1169.6 1476.68 1169.97 1476.54 1170.35 1476.48C1170.73 1476.4 1171.09 1476.38 1171.43 1476.44C1171.78 1476.49 1172.1 1476.59 1172.39 1476.76C1172.68 1476.92 1172.93 1477.13 1173.13 1477.39L1173.33 1477.65L1172.25 1478.49L1172.12 1478.32C1171.88 1478 1171.57 1477.82 1171.19 1477.76C1170.82 1477.7 1170.44 1477.76 1170.04 1477.93L1171.62 1479.96C1172.48 1479.44 1173.25 1479.2 1173.92 1479.22C1174.6 1479.23 1175.16 1479.52 1175.62 1480.11L1175.68 1480.2C1176.18 1480.83 1176.35 1481.51 1176.21 1482.25C1176.07 1482.97 1175.66 1483.63 1174.96 1484.25L1175.64 1485.12L1174.62 1485.91L1173.92 1485.02C1173.45 1485.27 1173 1485.44 1172.57 1485.52C1172.15 1485.57 1171.75 1485.57 1171.37 1485.5C1171 1485.41 1170.66 1485.27 1170.36 1485.07C1170.05 1484.87 1169.79 1484.64 1169.58 1484.36L1169.31 1484.02L1170.39 1483.18L1170.52 1483.35C1170.88 1483.8 1171.27 1484.08 1171.71 1484.18C1172.16 1484.28 1172.62 1484.21 1173.11 1483.98L1171.31 1481.67C1170.52 1482.12 1169.82 1482.34 1169.2 1482.33C1168.58 1482.29 1168.05 1481.99 1167.61 1481.42L1167.54 1481.34C1167.3 1481.04 1167.15 1480.73 1167.09 1480.41C1167.03 1480.08 1167.04 1479.75 1167.11 1479.44C1167.17 1479.11 1167.3 1478.8 1167.49 1478.5C1167.68 1478.19 1167.91 1477.9 1168.18 1477.65L1167.49 1476.77L1168.51 1475.97L1169.22 1476.88ZM1174.58 1481.06C1174.32 1480.73 1174.02 1480.56 1173.69 1480.56C1173.36 1480.56 1172.93 1480.7 1172.42 1480.98L1174.17 1483.23C1174.54 1482.86 1174.76 1482.49 1174.83 1482.12C1174.91 1481.73 1174.83 1481.38 1174.58 1481.06ZM1168.65 1480.48C1168.85 1480.74 1169.1 1480.9 1169.38 1480.95C1169.67 1480.99 1170.05 1480.88 1170.51 1480.64L1168.97 1478.67C1168.71 1478.95 1168.53 1479.26 1168.45 1479.58C1168.37 1479.9 1168.43 1480.2 1168.65 1480.48Z" fill="#7BF75C"/>
<path d="M1436.39 1408.33C1436.3 1408.74 1436.17 1409.12 1435.98 1409.45C1435.81 1409.79 1435.59 1410.08 1435.33 1410.32C1435.07 1410.55 1434.79 1410.73 1434.47 1410.86C1434.17 1410.98 1433.85 1411.04 1433.51 1411.03L1433.19 1411.03L1433.22 1409.66L1433.44 1409.66C1433.83 1409.67 1434.17 1409.55 1434.46 1409.29C1434.74 1409.04 1434.94 1408.71 1435.05 1408.3L1432.48 1408.24C1432.34 1409.23 1432.04 1409.98 1431.6 1410.48C1431.17 1411 1430.58 1411.25 1429.84 1411.24L1429.73 1411.23C1428.93 1411.21 1428.28 1410.92 1427.81 1410.34C1427.34 1409.78 1427.08 1409.04 1427.05 1408.11L1425.95 1408.09L1425.98 1406.79L1427.11 1406.82C1427.21 1406.29 1427.36 1405.84 1427.58 1405.46C1427.8 1405.09 1428.06 1404.79 1428.35 1404.54C1428.66 1404.31 1428.98 1404.13 1429.32 1404.02C1429.67 1403.91 1430.02 1403.86 1430.37 1403.87L1430.8 1403.88L1430.77 1405.24L1430.55 1405.24C1429.98 1405.23 1429.51 1405.36 1429.16 1405.64C1428.8 1405.92 1428.56 1406.32 1428.43 1406.85L1431.36 1406.91C1431.5 1406.02 1431.77 1405.33 1432.18 1404.86C1432.6 1404.4 1433.17 1404.18 1433.89 1404.2L1434 1404.2C1434.38 1404.21 1434.71 1404.29 1435 1404.44C1435.3 1404.6 1435.54 1404.81 1435.74 1405.07C1435.95 1405.33 1436.11 1405.62 1436.22 1405.96C1436.35 1406.3 1436.42 1406.66 1436.45 1407.03L1437.57 1407.06L1437.54 1408.35L1436.39 1408.33ZM1429.76 1409.83C1430.18 1409.84 1430.5 1409.71 1430.71 1409.46C1430.92 1409.2 1431.08 1408.78 1431.19 1408.21L1428.34 1408.14C1428.39 1408.66 1428.54 1409.06 1428.78 1409.36C1429.03 1409.66 1429.35 1409.82 1429.76 1409.83ZM1433.96 1405.61C1433.63 1405.6 1433.35 1405.69 1433.13 1405.87C1432.92 1406.07 1432.76 1406.43 1432.65 1406.94L1435.16 1407C1435.1 1406.62 1434.98 1406.29 1434.78 1406.02C1434.58 1405.75 1434.31 1405.61 1433.96 1405.61Z" fill="#7BF75C"/>
<path d="M384.852 1850.66C384.57 1850.88 384.321 1851.2 384.105 1851.61C383.878 1852.02 383.756 1852.5 383.74 1853.06C383.724 1853.61 383.879 1854.11 384.203 1854.53C384.527 1854.95 385.001 1855.17 385.625 1855.19C386.225 1855.2 386.688 1854.97 387.014 1854.47C387.214 1854.16 387.391 1853.84 387.545 1853.51C387.699 1853.17 387.846 1852.85 387.986 1852.55C388.127 1852.26 388.279 1851.97 388.442 1851.7C388.606 1851.43 388.824 1851.14 389.098 1850.82C389.607 1850.21 390.311 1849.92 391.211 1849.94C392.099 1849.97 392.805 1850.27 393.328 1850.85C393.841 1851.42 394.121 1852.12 394.169 1852.96L395.267 1852.99L395.245 1853.75L394.148 1853.72C393.991 1855.01 393.394 1856.18 392.356 1857.23L391.404 1856.5C391.612 1856.36 391.833 1856.19 392.067 1855.98C392.289 1855.76 392.546 1855.4 392.836 1854.9C393.114 1854.4 393.262 1853.85 393.278 1853.28C393.294 1852.69 393.129 1852.18 392.781 1851.73C392.434 1851.29 391.96 1851.06 391.36 1851.05C390.76 1851.03 390.3 1851.18 389.978 1851.51C389.657 1851.83 389.331 1852.33 389 1853.01C388.781 1853.52 388.57 1853.97 388.368 1854.35C388.153 1854.72 388.014 1854.95 387.952 1855.04C387.878 1855.12 387.772 1855.25 387.635 1855.42C387.486 1855.6 387.35 1855.72 387.228 1855.79C387.106 1855.86 386.96 1855.94 386.79 1856.03C386.509 1856.19 386.135 1856.26 385.667 1856.25C384.815 1856.23 384.14 1855.92 383.64 1855.33C383.129 1854.74 382.86 1854.04 382.835 1853.24L381.791 1853.21L381.812 1852.47L382.892 1852.5C383.028 1851.51 383.411 1850.69 384.041 1850.05L384.852 1850.66Z" fill="#7BF75C"/>
<path d="M287.701 1948.79C287.567 1949.12 287.511 1949.52 287.532 1949.99C287.537 1950.45 287.674 1950.93 287.943 1951.42C288.206 1951.91 288.586 1952.25 289.081 1952.46C289.571 1952.66 290.09 1952.61 290.639 1952.31C291.166 1952.03 291.447 1951.59 291.48 1951C291.5 1950.63 291.493 1950.27 291.459 1949.9C291.42 1949.53 291.387 1949.18 291.36 1948.85C291.332 1948.52 291.322 1948.2 291.327 1947.88C291.332 1947.57 291.374 1947.2 291.451 1946.79C291.586 1946.01 292.049 1945.4 292.84 1944.97C293.62 1944.55 294.382 1944.46 295.126 1944.7C295.853 1944.93 296.449 1945.4 296.913 1946.1L297.878 1945.58L298.239 1946.24L297.274 1946.77C297.787 1947.96 297.858 1949.27 297.487 1950.7L296.298 1950.55C296.409 1950.33 296.512 1950.07 296.61 1949.77C296.691 1949.46 296.732 1949.03 296.734 1948.45C296.72 1947.87 296.576 1947.33 296.301 1946.82C296.02 1946.31 295.619 1945.94 295.096 1945.74C294.574 1945.53 294.049 1945.57 293.522 1945.85C292.994 1946.14 292.674 1946.5 292.56 1946.95C292.44 1947.38 292.409 1947.98 292.467 1948.74C292.534 1949.29 292.575 1949.78 292.589 1950.21C292.593 1950.64 292.589 1950.91 292.576 1951.02C292.553 1951.12 292.526 1951.29 292.496 1951.51C292.456 1951.74 292.4 1951.91 292.329 1952.03C292.258 1952.15 292.171 1952.29 292.069 1952.46C291.907 1952.74 291.62 1952.99 291.209 1953.21C290.46 1953.62 289.721 1953.69 288.993 1953.43C288.254 1953.18 287.672 1952.71 287.246 1952.02L286.329 1952.52L285.977 1951.87L286.926 1951.36C286.545 1950.43 286.467 1949.53 286.69 1948.66L287.701 1948.79Z" fill="#7BF75C"/>
<path d="M552.603 1825.67C552.411 1825.97 552.284 1826.36 552.221 1826.82C552.142 1827.27 552.191 1827.77 552.366 1828.31C552.538 1828.83 552.849 1829.24 553.299 1829.54C553.745 1829.82 554.265 1829.86 554.858 1829.67C555.428 1829.48 555.783 1829.1 555.923 1828.52C556.008 1828.17 556.067 1827.81 556.099 1827.44C556.128 1827.07 556.158 1826.72 556.191 1826.39C556.223 1826.07 556.27 1825.75 556.332 1825.44C556.395 1825.13 556.501 1824.78 556.651 1824.39C556.925 1823.64 557.489 1823.13 558.344 1822.85C559.188 1822.57 559.955 1822.62 560.643 1822.98C561.317 1823.34 561.818 1823.91 562.148 1824.69L563.192 1824.35L563.427 1825.07L562.383 1825.41C562.672 1826.68 562.506 1827.98 561.884 1829.32L560.742 1828.96C560.891 1828.76 561.04 1828.52 561.19 1828.24C561.324 1827.96 561.444 1827.53 561.549 1826.97C561.64 1826.39 561.595 1825.83 561.416 1825.29C561.233 1824.73 560.904 1824.3 560.427 1824C559.951 1823.7 559.427 1823.65 558.857 1823.83C558.287 1824.02 557.906 1824.32 557.714 1824.74C557.518 1825.14 557.38 1825.72 557.3 1826.48C557.267 1827.04 557.218 1827.53 557.155 1827.95C557.081 1828.38 557.028 1828.64 556.997 1828.74C556.955 1828.84 556.899 1829 556.83 1829.21C556.749 1829.43 556.663 1829.59 556.571 1829.7C556.479 1829.8 556.369 1829.93 556.239 1830.07C556.029 1830.31 555.701 1830.51 555.257 1830.66C554.447 1830.92 553.707 1830.86 553.038 1830.47C552.357 1830.09 551.868 1829.52 551.573 1828.77L550.58 1829.1L550.351 1828.4L551.377 1828.06C551.17 1827.08 551.255 1826.18 551.631 1825.37L552.603 1825.67Z" fill="#7BF75C"/>
<path d="M221.303 1578.08C221.576 1578.31 221.937 1578.49 222.386 1578.62C222.826 1578.76 223.323 1578.78 223.878 1578.68C224.422 1578.59 224.871 1578.34 225.226 1577.93C225.569 1577.53 225.685 1577.02 225.576 1576.41C225.471 1575.82 225.144 1575.41 224.593 1575.19C224.252 1575.06 223.904 1574.95 223.548 1574.87C223.18 1574.79 222.837 1574.71 222.518 1574.63C222.2 1574.55 221.891 1574.46 221.592 1574.36C221.293 1574.25 220.961 1574.1 220.596 1573.89C219.895 1573.52 219.466 1572.89 219.309 1572C219.154 1571.13 219.307 1570.37 219.767 1569.74C220.219 1569.13 220.851 1568.71 221.666 1568.49L221.474 1567.41L222.218 1567.28L222.41 1568.36C223.707 1568.25 224.976 1568.6 226.215 1569.4L225.694 1570.48C225.516 1570.31 225.301 1570.13 225.049 1569.94C224.787 1569.77 224.383 1569.59 223.839 1569.4C223.285 1569.23 222.724 1569.2 222.157 1569.3C221.578 1569.4 221.107 1569.67 220.745 1570.1C220.382 1570.53 220.254 1571.04 220.359 1571.63C220.464 1572.22 220.709 1572.64 221.094 1572.89C221.468 1573.14 222.024 1573.36 222.764 1573.54C223.308 1573.65 223.786 1573.77 224.197 1573.89C224.611 1574.03 224.864 1574.12 224.958 1574.16C225.053 1574.22 225.201 1574.29 225.401 1574.39C225.603 1574.5 225.751 1574.61 225.842 1574.72C225.934 1574.82 226.042 1574.95 226.166 1575.1C226.38 1575.34 226.528 1575.69 226.609 1576.15C226.758 1576.99 226.594 1577.71 226.118 1578.32C225.643 1578.94 225.014 1579.35 224.231 1579.54L224.413 1580.56L223.686 1580.69L223.498 1579.63C222.498 1579.7 221.62 1579.49 220.863 1579L221.303 1578.08Z" fill="#7BF75C"/>
<path d="M134.558 1802.27C134.315 1802 133.978 1801.78 133.548 1801.6C133.128 1801.41 132.637 1801.33 132.074 1801.36C131.523 1801.39 131.047 1801.58 130.646 1801.94C130.258 1802.3 130.081 1802.79 130.115 1803.42C130.148 1804.01 130.425 1804.46 130.946 1804.74C131.268 1804.91 131.601 1805.06 131.944 1805.19C132.3 1805.31 132.631 1805.43 132.938 1805.55C133.245 1805.66 133.54 1805.79 133.825 1805.93C134.109 1806.07 134.42 1806.26 134.758 1806.51C135.409 1806.97 135.759 1807.64 135.809 1808.54C135.858 1809.43 135.616 1810.16 135.083 1810.73C134.561 1811.29 133.883 1811.62 133.048 1811.74L133.109 1812.84L132.354 1812.88L132.293 1811.79C130.993 1811.74 129.775 1811.24 128.641 1810.29L129.288 1809.28C129.443 1809.48 129.635 1809.69 129.863 1809.9C130.103 1810.1 130.482 1810.33 131 1810.58C131.53 1810.81 132.083 1810.91 132.658 1810.88C133.245 1810.85 133.744 1810.64 134.155 1810.26C134.567 1809.87 134.756 1809.38 134.722 1808.78C134.689 1808.18 134.496 1807.74 134.143 1807.45C133.802 1807.15 133.276 1806.87 132.564 1806.6C132.037 1806.42 131.577 1806.25 131.183 1806.08C130.788 1805.9 130.547 1805.78 130.46 1805.72C130.372 1805.65 130.234 1805.56 130.047 1805.44C129.86 1805.3 129.727 1805.18 129.648 1805.06C129.569 1804.95 129.478 1804.81 129.372 1804.65C129.189 1804.38 129.085 1804.01 129.059 1803.55C129.012 1802.7 129.261 1802 129.808 1801.45C130.353 1800.89 131.026 1800.56 131.826 1800.47L131.768 1799.43L132.505 1799.39L132.565 1800.47C133.566 1800.52 134.412 1800.83 135.105 1801.41L134.558 1802.27Z" fill="#7BF75C"/>
<path d="M847.539 1897.32C847.113 1897.32 846.719 1897.27 846.357 1897.15C845.985 1897.04 845.658 1896.89 845.378 1896.68C845.098 1896.48 844.865 1896.23 844.681 1895.95C844.498 1895.67 844.378 1895.37 844.319 1895.04L844.262 1894.72L845.609 1894.48L845.647 1894.7C845.716 1895.09 845.905 1895.39 846.213 1895.62C846.51 1895.85 846.874 1895.98 847.306 1896.01L846.856 1893.48C845.855 1893.53 845.062 1893.39 844.478 1893.06C843.885 1892.74 843.523 1892.21 843.393 1891.48L843.374 1891.37C843.234 1890.58 843.398 1889.89 843.867 1889.31C844.327 1888.74 845.006 1888.34 845.906 1888.12L845.714 1887.04L846.99 1886.82L847.188 1887.93C847.723 1887.92 848.197 1887.99 848.61 1888.12C849.014 1888.27 849.366 1888.46 849.664 1888.7C849.953 1888.95 850.186 1889.23 850.363 1889.54C850.542 1889.87 850.662 1890.2 850.723 1890.54L850.798 1890.97L849.451 1891.21L849.413 1890.99C849.313 1890.43 849.09 1890 848.746 1889.7C848.401 1889.41 847.959 1889.25 847.418 1889.23L847.931 1892.12C848.838 1892.08 849.562 1892.21 850.104 1892.52C850.636 1892.84 850.965 1893.35 851.091 1894.06L851.11 1894.16C851.177 1894.54 851.165 1894.89 851.074 1895.2C850.973 1895.52 850.816 1895.8 850.603 1896.05C850.393 1896.3 850.133 1896.52 849.823 1896.7C849.515 1896.89 849.182 1897.03 848.822 1897.13L849.017 1898.23L847.741 1898.46L847.539 1897.32ZM844.757 1891.12C844.83 1891.54 845.015 1891.82 845.31 1891.98C845.606 1892.13 846.046 1892.21 846.63 1892.2L846.132 1889.4C845.635 1889.55 845.266 1889.77 845.027 1890.07C844.775 1890.37 844.685 1890.72 844.757 1891.12ZM849.728 1894.41C849.669 1894.08 849.526 1893.82 849.299 1893.65C849.063 1893.48 848.682 1893.4 848.157 1893.39L848.595 1895.85C848.963 1895.73 849.258 1895.54 849.483 1895.29C849.707 1895.05 849.789 1894.75 849.728 1894.41Z" fill="#7BF75C"/>
</g>
</svg>
